<?xml version="1.0" encoding="UTF-8"?>
<!DOCTYPE svg PUBLIC "-//W3C//DTD SVG 1.1//EN" "http://www.w3.org/Graphics/SVG/1.1/DTD/svg11.dtd">
<!-- Creator: CorelDRAW 2018 (64-Bit Wersja próbna) -->
<svg xmlns="http://www.w3.org/2000/svg" xml:space="preserve" width="169.333mm" height="165.185mm" version="1.1" style="shape-rendering:geometricPrecision; text-rendering:geometricPrecision; image-rendering:optimizeQuality; fill-rule:evenodd; clip-rule:evenodd"
viewBox="0 0 16933.32 16518.46"
 xmlns:xlink="http://www.w3.org/1999/xlink">
 <defs>
  <style type="text/css">
   <![CDATA[
    .fil31 {fill:#2C0E12}
    .fil14 {fill:#2E5428}
    .fil34 {fill:#441616}
    .fil20 {fill:#474618}
    .fil5 {fill:#4A2C1B}
    .fil21 {fill:#4E6422}
    .fil35 {fill:#5B6C5C}
    .fil22 {fill:#66A4AC}
    .fil6 {fill:#678B37}
    .fil28 {fill:#6B3ABA}
    .fil15 {fill:#7054D5}
    .fil29 {fill:#709492}
    .fil25 {fill:#711C26}
    .fil1 {fill:#806DC4}
    .fil0 {fill:#810EDF}
    .fil8 {fill:#870BD9}
    .fil19 {fill:#A453E6}
    .fil10 {fill:#A52319}
    .fil2 {fill:#AB7737}
    .fil17 {fill:#ABC46D}
    .fil26 {fill:#BA572A}
    .fil13 {fill:#C49FD4}
    .fil16 {fill:#D1B175}
    .fil18 {fill:#D58B53}
    .fil33 {fill:#D8E5BC}
    .fil11 {fill:#D8E7D7}
    .fil27 {fill:#DA5029}
    .fil7 {fill:#E7E7E8}
    .fil32 {fill:#EDC651}
    .fil24 {fill:#EFD08E}
    .fil12 {fill:#F1B1A8}
    .fil23 {fill:#F1CB70}
    .fil30 {fill:#F2E8CA}
    .fil3 {fill:#F6C9A2}
    .fil9 {fill:#FAD7B9}
    .fil4 {fill:#FDFDFC}
   ]]>
  </style>
   <clipPath id="id0">
    <rect x="-21466369.82" y="21483095.71" width="0" height="0"/>
   </clipPath>
 </defs>
 <g id="Warstwa_x0020_1">
  <metadata id="CorelCorpID_0Corel-Layer"/>
  <g style="clip-path:url(#id0)">
  </g>
  <path class="fil0" d="M5738.31 748.65c39.06,11.49 3.7,-9.82 45.5,32.99 183.91,188.44 919.88,999.72 980.7,1157.08 51.82,134.12 80.71,522.26 -15.46,613.38 17.91,100.39 -7.01,18.43 33.96,88l1396.76 1620.89c83.73,102.82 104.85,169.23 145.04,326.17 64.88,202.17 377.26,1103.04 379.72,1246.85 140.18,126.4 -52.91,649.25 54.09,808.26 212.44,109.34 424.39,239.46 634.35,362.06 98.08,57.28 207.18,123.81 315.25,184.58 96.4,54.2 222.7,136.78 313.89,174 188.04,11.35 130.39,-11.45 247.18,-66.91 59.73,-293.91 39.3,-229.32 173.58,-443.34 306.51,-488.53 239.7,-959.7 634.42,-1243.86 233.02,-167.77 999.42,-628.43 1115.31,-763.65 63.51,-74.08 211.64,-308.1 220.92,-432.77 -94.35,-82.22 -225.02,-436.59 -242.23,-605.9 -30.39,-299.19 108.51,-472.51 221.39,-658.68l652.76 -1075.45c34.58,-117.58 93.6,-113 132.92,-211.31 -60.04,-28.96 -149.55,-105.99 -207.54,-152.76 -66.29,-53.53 -154.39,-127.28 -230.33,-167.42 -169.16,7.27 24.12,33.11 -95.2,53.57 -50.79,8.69 -52.6,-43.45 -142.38,-177.14 -74.62,-111.08 18.74,-83.54 -77.61,-104.75 -28.13,4.43 -9.37,-46.94 -44.54,62.25 -5.75,17.91 -20.48,100.72 -22.84,120.08 -10.38,85.19 -8.19,178.74 -0.31,265.91 45.9,-42.43 103.89,-88.21 173.74,-111.62 63.96,90.01 -26.74,99.64 98.69,179.17 79.3,50.24 93.72,96.71 73.85,212.25 -86.05,10.03 -123.69,-30.4 -192.5,-48.71 -32.67,42.98 -19.76,79.3 -39.98,117.27 -44.37,-25.37 -43.99,-37.05 -60.6,-46.97 23.9,86.5 31.34,87.44 14.98,203.05 -156.6,89.97 -89.58,20.82 -141.76,210.11 -22.37,81.14 -73.8,202.67 -132.3,246.43 -189.27,-130.08 -20.22,-333.82 -11.45,-368.96l-108.29 -11.44c-19.64,-113.07 30.86,-87.82 -0.15,-153.99 -117.85,15.24 -3.25,2.26 -75.99,46.28 -60.6,36.65 -47.43,9.91 -91.82,33.65 46.44,65.11 110.68,146.74 97.68,229.91 -184.27,53.69 -150.45,-74.18 -249.57,-105.92 -99.78,116.65 -45.14,322.65 -319.58,315.76 -30.3,-189.71 93.15,-213.5 39.86,-315.76l-99.03 7.15c-108.1,92.8 59.76,147.15 -139.66,173.65 -226.01,30.02 -25.44,100.2 -200.9,116.13l-28.79 -110.56c-103.77,-6.26 -134.52,-40.24 -230.76,-67.95 -83.59,-24.04 -205.52,-27.91 -261.48,-57.91 40.43,-84.13 18.53,-27.8 67.85,-77.83 21.07,-21.38 46.96,-56.64 61.76,-80.99 13,-21.46 35.61,-67.85 39.5,-87.46 13.86,-69.67 -8.99,40.4 3.38,-38.92 15.01,-96.4 73.28,-104.83 222.99,-105.35 0,-0.26 0.05,-54.77 0.17,-55.38l25.48 -69.1c74.65,28.72 127.23,24.92 219.79,25.58 45.31,62.32 -6.85,-9.39 24.44,45.12l61.58 91.68c32.59,61.91 0.42,14.47 -3.5,11.1l148.82 -18.39c-5.73,78.68 -17.93,103.39 -7.15,126.52l379.1 -227.45c170.08,-126.61 160.13,-289.26 298.96,-338.21 -70.63,190.36 -308.14,262.78 -173.69,446.06 66.62,-6.59 108.01,-46.82 164.91,-91.24l-29.69 -167.37c171.19,-103.98 118.33,-81.51 335.59,-53.1 5.45,-118.58 6.82,-204.16 22.65,-318.42 11.54,-83.29 19.73,-64.74 -2.26,-142.59 -26.05,-92.21 -10.5,-36.96 -11.66,-140.32 -216.78,-41.23 -57.16,-22.61 -288.98,20.2 -2.71,-3.9 -4.43,-16.24 -4.93,-13.36l-15.05 -80.62c-112.34,-24.73 -141.81,3.94 -163.22,-121.42 -960.59,-455.07 -1801.28,-739.16 -2913,-800.07 -583.81,-31.97 -1206.34,-5.94 -1755.64,98.89 -212.84,40.61 -1160.79,267.14 -1377.33,383.53 -82.41,44.3 -44.54,-14.79 -64.36,75.76z"/>
  <path class="fil1" d="M2697.85 10936.55c-45.98,47.98 -77.34,50.06 -82.04,54.78 -96.8,-46.52 -1.86,4.84 -49.86,-32.21 -174.43,-134.62 -188.26,-319.97 -217.71,-405.49 -48.64,-141.17 -199.34,-178.79 -363.69,-310.76 -112.14,25.06 -179.38,120.31 -302.92,136.33 -46.09,85.72 -1294.46,767.13 -1470.82,866.08 -109.88,61.65 -182.47,78.45 -210.81,127.96 107.33,9.58 6.35,-12.04 154.53,73.04l393.47 225.97c519.38,284.06 1075.03,630.27 1597.1,920.4 362.82,201.66 705.69,408.34 1064.93,614.39l3569.44 2064.51c50.81,27.14 86.75,41.51 130.65,69.07l1060.54 616.66c159.62,92.48 376.34,233.3 530.87,298.98 89.41,-81.35 5004.98,-2866.07 5131.92,-2979.18l-15.53 -44.29c-1.13,-5.6 -2.01,-10.86 -2.9,-17 -35.28,-245.01 40.14,-1738.41 -18.22,-1898.34 -747.49,99.28 -699.33,-320.93 -216.43,-330.46 -4.3,-4.27 -10.25,-9.09 -13.53,-12.13l-186.88 -205.7c-68.46,-120.76 -39.93,-205.08 -72.05,-292.35 -15.2,-12.86 -86.3,-75.02 -80.12,-97.37l-419.22 239.3c-146.67,81.65 -254.26,156.37 -416.89,230.54l-158.94 -77.54c-58.55,-21.1 -89.53,-34.29 -148.01,-51.62 -108.02,-31.95 -243.95,-65.89 -342.74,-80.73 -105.8,34.43 -40.02,-24.8 -29.66,79.72 29.61,40.92 243.92,98.15 318.19,119.98l-0.71 285.95c25.2,-59.99 12.44,-124.27 111.48,-100.55 66.11,15.83 77.98,59.28 131.64,91.66 241.31,145.63 551.62,-369.48 679.83,-438.22 58.51,-31.39 43.9,15.67 53.17,-6.56 2.13,-5.15 10.17,1.53 14.82,3.58 38.07,124.14 -50.71,180.92 -51.68,284.05 85.52,82.15 203.05,75.19 236.7,206.23 36.65,142.69 -23.34,259.22 -149.22,273.14 137.75,83.22 104.03,553.93 94.35,662.73 179.6,-50.11 334.2,-13.62 418.47,99.35 164.91,221.08 -5.99,410.14 -73.49,562.28 -61.81,139.38 -494.5,162.22 -519.78,8.38 -32.07,34.97 -102.3,189.05 -131.23,239.7 -99.05,173.43 -179.55,277.72 -314.52,424.88 -201.94,220.19 -560.27,497.43 -861.73,595.51 -73.04,23.77 -239.49,30.24 -297.61,61.1 -13.97,12.61 2.97,8.59 -50.15,28.68 -16.07,6.06 -48.71,12.93 -67.26,16.59 -543.21,107.09 -1309.18,45.03 -1798.49,-181.25 -828.58,-383.16 -704.92,-986.29 -196.28,-1265.17 16.33,-28.91 14.02,-11.18 -0.62,-36.93l-1022.54 582.81c-213.6,121.07 -185.7,60.91 -543.28,-136.76 -581.47,-321.42 -355.93,-205.22 -392.44,-330.58 -84.58,-13.94 -75.33,45.43 -177.06,1.02l-493.99 -285.79c-74.29,-47.39 -594.4,-347.48 -660.34,-361.71 2.46,-79.65 20.28,-84.51 -8.75,-146.89 5.9,118.43 -2.27,161.71 -52.44,250.96 -61.57,109.55 -25.06,28.3 -131.54,105.85 -32.36,23.55 -0.76,1.72 -32.38,29.19 -227.48,197.53 -500.55,128.43 -698.9,-88.71 -162.96,-178.41 -225.35,-451.74 -144.1,-534.29 63.27,-64.29 213.65,106.92 583.22,97.93 -103.16,-76.58 -247.26,-154.29 -364.59,-219.38 -1076.12,-596.81 -282.56,-281.63 -1288.25,-297.59 -0.05,0.07 -27.17,40.38 -28.3,41.63 -38.35,42.58 2.88,13.36 -43.59,35.31 42.29,109.4 93.72,248.45 73.02,394.98 -29.55,209.33 -370.09,394.21 -529.45,205.08 -39.75,-47.15 -23.51,-126.14 -7.98,-172.96 19.11,-57.72 48.59,-92.67 76.7,-130.91 -400.89,-41.46 -399.47,-254.33 -321.97,-321.94 -250.56,58.38 -44.89,295.73 -316.42,381.27 -100.7,31.72 -230.95,20.09 -312.37,-33.53 -107.49,-70.8 -23.12,-129.63 -81.32,-250.42l-76.72 -9.46c-117.48,-6.37 -324.35,-32.24 -389.79,-90.83 152.31,32.12 283.33,77.33 471.8,71.38 -15.65,-159.06 48.4,-265.44 156.7,-310.85 109.1,21.6 29.24,25.61 105.89,41.73 32.5,6.84 95.67,3.02 139.12,5.75l28.44 -84.27c53.97,123.5 61.87,8.12 151.86,200.27 4.93,10.54 12.48,25.93 19,37.73l81.11 -7.95 -31.18 -189.81c-25.32,-13.38 -102.96,-50.93 -112.24,-56.62 -96.24,-59.16 -43,-90.81 -42.33,-92.34 159.55,-60.68 68.17,26.66 198.21,39.29 -19.66,-55.15 -142.92,-136.17 139,-139.4l-28.37 165.62c80.29,-40.43 100.18,-80.97 124.11,-174.02l159.25 -21.27c-8.71,-27.23 -32.57,-35.82 -37.52,-94.56 25.13,-29.55 -33.14,-32.64 44.93,-18.53 55.46,-133.17 253.06,-154.08 266.18,-301.71 -57.54,21.35 -126.89,80.16 -182.57,123.96 -108.32,85.22 -42.97,62.02 -193.18,50.72 5.97,79.08 18.93,66.6 -16.87,119.84 -57.54,85.57 -100.68,40.66 -152.03,40.07 -61.86,-0.73 -38.35,9.23 -96.71,18.86 -278.48,-390.79 -121.68,-223.35 -174.21,-612.55 -227.86,127.67 -227.6,600.11 25.79,750.63l-18.97 6.08z"/>
  <path class="fil2" d="M10022.11 7362.91c3.97,5 9.51,11.8 11.75,15.12l25.54 46.82 -638.63 363.41c-91.09,50.43 -573.46,310.88 -603.22,375l328.6 757.78c-209.02,-1.91 -175.37,-73.77 -272.46,-139.8 -59.64,-40.55 -101.34,-33.54 -177.63,-34.84 -254.59,-4.29 -147.36,-49.06 -205.91,26.88 134.09,47.37 155.64,-2.19 254.29,25.07 65.91,18.21 107.7,94.56 150.25,124.58 159.42,112.47 249.85,-16.19 343.97,213.19 16.92,41.28 20.62,62.1 38.44,100.75 33.23,72.07 11.61,32.97 58.1,82.29 180.02,190.95 69.53,298.87 74.25,440.65 3.56,107.38 46.25,106.01 19.73,258.04 -106.23,84.41 -54.85,-16.21 -116.14,126 -30.39,70.58 -25.23,74.29 -112.71,42.71l-14.54 -24.05c-245.22,-90.59 -153.94,6.92 -262.71,-149.83 -28.46,-41.01 -384.1,-299.24 -411.5,-385 -31.01,-97.09 17.02,-74.06 -60.63,-143.65 -28.08,-25.18 -78.8,-58.6 -110.4,-83.54 -8.96,-126.54 21.76,-84.02 -39.55,-186.39 -46.04,-76.89 -35.02,-39.08 -17.16,-125.58 16.05,-77.76 -2.83,-105.89 22.05,-157.52 26.57,-55.18 82.24,-84.51 85.57,-98.22 1.72,-7.01 7.39,-7.51 10.48,-11.76 -63.91,-103.31 -130.93,-211.52 -184.34,-322.46 -291.36,79.48 -601.95,480.98 -981.9,347.53 -86,8.61 -199.49,84.96 -258.94,145.65 163.36,-43.37 130.65,-5.21 268.16,-3.09 -16.18,89.09 9.89,60.35 -90.83,109.43 -120.88,58.93 -216.93,158.76 -357.25,145.63l-26.88 50.72c-58.36,83.02 -92.77,26.38 -155.57,17.2 -114.88,-16.82 -132.32,24.48 -242.1,-35.87 44.91,-6.51 51.66,22.8 113.39,50.86 47.55,21.64 104.83,32.66 158.4,46.16 -12.27,13.97 1.3,45.88 -94.47,42.81 -10.74,-0.35 -93.97,-13.64 -111.62,-16.09 -99.71,-13.81 -89.59,-8.05 -200.5,1.08 142.61,212.14 74.55,234.89 25.27,159.2l3.21 63.25c-123.99,36.79 -204.7,108.82 -302.38,163.73l-861.17 496.21 -51.33 17.18c-79.83,-150.62 -35.4,-127.54 -212.28,-200.25 42.89,146.68 24.76,48.03 94.05,125.62 7.55,8.48 56.24,103.68 68.37,129.94 -53.06,-43.8 -77.81,-117.69 -102.68,-175.62 -74.2,60.03 -64.05,78.89 -57.87,239.67 -78.49,48.97 -342.29,168.39 -369.78,263.75l-1.39 194.7c36.48,-47.96 12.93,19.18 25.25,-78.5 3.66,-28.9 2.36,-84.17 5.1,-118.75l277.31 164.42c4.72,130.72 -33.63,543.38 21.57,627.04 74.32,-33.21 46.12,-18.6 45.05,-273.4 -0.42,-103.23 -0.61,-207.44 1.21,-310.55l1069.86 614.37c177.32,102.59 361.99,210.15 545.99,314.08l543.34 321.19 -30.99 595.63 126.19 -31.88c36.15,-16.05 20.6,-6.35 42.92,-24.26l0.83 -472.49c39.29,12.49 117.1,77.83 164.63,102.61 186.51,97.23 374.24,252.71 580.78,289.95l3.57 664.18c92.11,-22.14 469.77,-261.29 585.19,-324.49l582.27 -330.14c-75.21,-142.75 -178.72,-669.44 -129.58,-862.63 54.54,-373.84 112.57,-348.89 262.52,-568.53 27.02,34.62 16.28,-37.93 19.61,55.17l14.44 -49.39c8.71,-49.11 12.23,-99.64 47.34,-163.36 18.03,-32.68 6.59,-18.52 27.05,-39.15 72.1,1.25 73.58,-4.81 113.23,33.21 41.16,-48.55 48.61,-44.91 113.84,-79.91 50.11,-26.88 82.98,-46.05 131.9,-69.41 93.62,-44.72 192.22,-85.76 297.64,-115.97 -66.84,-76.22 -62.19,-212.39 -36.42,-323.12 155.52,-9.28 145.33,43.09 186.84,158.3 28.16,78.17 56.21,150.47 137.94,180.49 31.58,-78.47 2.08,-56.94 23.62,-140.34 12.42,-48.05 0.92,-22.66 23.96,-51.8 116.79,48.92 29.17,110.23 101.57,250.17l118.3 -21.66c23.11,95.27 -62.84,102.49 -32.16,257.38 173.59,70.2 264.9,-43.97 267.57,-216.88 0.66,-43.66 -0.62,-88.6 -6.21,-131.81 -16.24,-125.76 -46.63,-75.14 -77.36,-142.25 -55.65,-121.49 25.89,-238.08 182.85,-139.43 14.49,85.03 16.57,103.96 -20.27,133.31 43.94,10.67 65.32,21.67 86.04,54.94 49.59,-53.21 156.99,-24.75 224.39,-19.09 -11.64,159.44 -18.15,449.03 159.67,517.51 77.22,-430.29 -76.51,-391.72 -50.38,-607.42 126.65,-3.02 86.58,-6.47 161.35,59.66 39.55,34.99 97.63,83.44 133.12,74.43 98.79,14.84 234.72,48.78 342.74,80.73 58.48,17.33 89.46,30.52 148.01,51.62l158.94 77.54c162.63,-74.17 270.22,-148.89 416.89,-230.54l419.22 -239.3c-6.18,22.35 64.92,84.51 80.12,97.37 58.15,-5.57 273.07,160.08 590.84,32.15 95.86,-38.59 68.04,-54.99 146.31,-113.66 237.68,-297.68 154.49,-333.48 -25.6,-545.48 -227.5,-267.81 138.15,-402.3 235.31,-465.97l26.15 -20.06 -156.96 23.67c-0.29,-269.15 60.15,-277.18 -115.38,-363.27l-258.84 -180.27c-18.95,-12.96 -59.66,99.42 -22.37,-124.33 -66.2,87.91 -75.54,134.31 -163.26,194.39 -177.14,121.3 -377.64,75.83 -456.44,-169.82 -27.07,-84.34 33.91,-198.97 61.03,-273.56 -126.68,51.32 -85.81,34.78 -190,-19.45 -130.27,-67.78 -81.77,-27.38 -184.05,-129.85 -107.57,71.98 -199.51,209.99 -327.42,256.79 41.39,-186.95 159.6,-225.28 179.33,-515.81 9.27,-136.88 69.99,-526.37 24.85,-619.21 -52.96,15.18 -38.56,-25.15 -54.8,79.16 -32.64,209.96 -40.09,660.12 -121.49,820.9 -156.72,309.56 -146.15,455.03 -543.07,533.8 28.77,-155.61 224.38,-485.84 286.28,-666.9 39.79,-116.37 26.41,-312.27 26.11,-447.99 -0.24,-114.93 37.94,-345.09 -32.6,-409.26 -68.62,59.76 -53.57,539.44 -57.6,669.66 -7.18,231.65 -96.24,372.83 -178.48,560.51 -145.8,332.68 -288.2,666.71 -405.68,1049.64 -118.85,12.34 -122.13,-8.26 -214.19,-41.42 -128.26,-32.43 -337.14,-94.87 -404.3,-156.32 -52.51,64.99 -368.32,271.89 -368.32,265.23 -66.62,68.84 11.18,78.8 -126.33,91.14 -263.54,23.67 -272.46,17.51 -378.39,-73.93 -90.44,-78.05 -130.89,-23.53 -296.46,-185.38l-18.79 -20.81c-2.8,-2.95 -6.04,-8.03 -8.89,-10.93l-44.58 -35.28c-83.26,-48.03 -30.66,19.02 -80.62,-62.99 -105.32,-172.86 -36.15,-186.13 -105.89,-233.07 -65.87,-44.32 -110.07,-123.07 -119.67,-204.6 -20.7,-175.63 -49.8,-224.25 -23.98,-312.37 23.2,-79.22 -53.9,-289.92 254.21,-314.81 65.8,-49.33 174.5,-90.51 259.32,-134.62 179.07,-93.1 144.85,-37.47 305.14,-78.51 -113.42,4.32 -200.25,16.35 -244.78,-43.14 -114.97,-153.54 381.87,-284.75 495.73,-784.78 -116.79,55.46 -59.14,78.26 -247.18,66.91z"/>
  <path class="fil0" d="M1681.63 10379.2c123.54,-16.02 190.78,-111.27 302.92,-136.33l433.48 -269.34c27.82,-13.29 1.79,-8.9 36.03,-12.86 48.29,-5.62 -11.99,-23.46 32.76,6.49 72.8,-418 312.81,-334.76 164.7,-920.78 -78.42,-310.2 -238.99,-564.67 -273.26,-884.77 -52.04,-486.13 78.92,-633.48 369.38,-814.52 338.46,-210.93 423.33,-156.79 547.06,-604.07 -146.48,-158.38 -144.24,-84.7 -152.95,-360.27 -5.78,-182.14 55.51,-277.53 202.63,-311.45 -32.55,71.39 1.04,5.01 -28.39,46.05l-77.41 83.85c-41.58,46.63 -59.71,79.05 -47.93,156.91 26.81,176.92 141.05,124.56 198.99,264.93 -105.32,-25.49 -156.11,-67.73 -204.7,-129 89.56,192.76 218.58,306.47 484.47,310.62l-22.49 -221.48c-185.23,-68.89 -277.22,-48.66 -322.53,-234.44 141.67,67.12 116.46,138.32 314.53,163.31l-41.91 -463.78c-395.86,-94.85 -403.36,-406.19 -24.92,-510.81 272.48,-75.31 722.52,1.96 666.5,331.83 -1.23,83.54 -21.27,151.44 8.61,201.94 140.82,84.96 165.36,188.96 160.71,352.44 -5.92,207.89 -39.13,217.02 -153.4,319.35 7.53,84.53 104.83,295.98 155.05,350.1 64.43,69.43 199.47,144.64 311.35,205.64 75.19,40.99 260.96,151.89 309.06,211.97 40.24,50.27 166.61,245.93 139.17,341.35 18.26,-103.02 75.42,-177.85 175.6,-197.32 57.16,138.48 18.95,145.54 9.96,271.32 75.52,-4.1 10.05,-53.38 121.47,-82.5 41.08,90.48 47.5,105.28 16.26,203.76 82.31,-43.68 57.39,-357.37 37.12,-461.37 -22.68,-116.28 -51.94,-111.89 -110.45,-266.68 -33.3,-88.09 -30.68,-67.68 -24.85,-161.96 92.3,7.69 142.78,47.6 224.29,46.59 5.01,-139.31 -111.36,-180.52 8.47,-291.67 53.69,-49.82 140.66,-119.3 224.34,-123.87l96.45 197.62c19.94,144.54 -52.84,47.15 -64.64,234.91l184.79 -15.32c57.82,209.92 -55.67,144.55 -14.68,340.75 -2.06,-33.74 34.59,-50.05 60.08,-85.73 21.93,-30.71 42.46,-67.59 63.72,-99.69 45.6,-68.84 -39.41,-276.96 93.31,-228.18l57.02 61.55c22.8,38.89 29.97,80.14 59.26,94.94 28.51,-113.52 9.32,-219.48 3.04,-335.92 153.09,32.45 67.38,48.66 147.03,89.21 59.11,-171.12 -126.45,-274.58 -236.26,-361.52 -225.56,-178.65 -288.85,-88.26 -273.89,-228.09 58.22,0.82 58.19,17.08 145.06,23.98 26.84,-67.29 23.01,-103.56 118.85,-49.37 24.19,13.68 10.55,8.94 37.33,25.86 148.8,93.86 78.33,43 196.54,178.58 9.79,11.23 -1.89,66.88 161.11,61.24 -4.41,-5.43 -10.61,-11.57 -14.13,-15.51l-45.03 -53.21c-136.03,-179.38 -149.6,-169.87 -162.6,-471.57 -15.39,-96.45 -12.58,-207.93 -13.17,-309.03 -0.4,-68.91 17.47,-218.44 -13.36,-277.68l-37.45 78.26c-33.84,140.96 -6.98,495.66 -5.9,654.13 -221.9,50.6 -301.41,26.24 -371.52,-160.12 -52.02,-138.22 0.56,-366.19 -64.67,-493.75 -11.66,19.16 -4.72,-8.76 -15.81,43.4l-4.88 175.65c0.8,73.35 1.95,145.99 3.37,219.24 -99.66,-51.33 -217.92,-307.15 -267.97,-453.56 -144.26,-421.96 -99.52,-936.1 -119.3,-1322.47 -17.51,-341.46 -26.95,-416.69 -266.03,-401.45 -413.4,26.48 -512.23,-58.05 -700.55,-267.19 -79.61,-88.41 -158.36,-177.38 -237.84,-261.89 -81.56,-86.68 -151.79,-149.83 -222.33,-248.74 -121.59,48.88 -30.09,165.7 -283.38,220.97 -168.24,36.69 -171.57,112.66 -257.45,243.73 -200.88,306.58 -389.32,182.38 -605.23,-6.02 -271.59,-236.98 -467.34,-648.51 -428.66,-1051.49 26.21,-273.1 102.63,-234.89 140.98,-378.16 -132.54,13.17 -173.93,1.01 -232.98,112.31 -131.73,248.33 -55.5,615.54 36.68,841.84 51.8,127.13 -44.98,191.46 -194.01,416.77 -1236.92,1870.07 -1504.87,4194.48 -805.01,6357.49 54.71,169.04 134.9,342.07 184.39,494.05z"/>
  <path class="fil0" d="M13830.01 5422.37c-161.35,38.65 -214.38,415.91 -270.99,540.33 -34.22,218.81 -154.84,522.85 -229.96,719.83 -77.52,203.29 -197.41,487.52 -246.78,695.43 -44.22,135.65 -95.1,232.34 -136.03,360.44 -47.41,148.44 -71.08,245.83 -176.35,323.48 0.44,-124.82 62.32,-452.6 21.21,-533.54 -51.61,30.09 -63.69,349.55 -71.36,417.14 -44.54,392.04 -48.78,220.61 -125.1,375.82 102.28,102.47 53.78,62.07 184.05,129.85 104.19,54.23 63.32,70.77 190,19.45 71.55,-115.26 185.96,-429.28 281.96,-492.6 116.18,38.61 188.07,173.15 237.06,286.36 81.61,188.51 91.87,249.63 39.65,455.23 -37.29,223.75 3.42,111.37 22.37,124.33l258.84 180.27c175.53,86.09 115.09,94.12 115.38,363.27l156.96 -23.67 238.8 -38.66 3.99 -84.51c217.75,-172.65 348.14,30.75 272.88,69.95 225.64,31.15 436.69,97.35 553.55,249.26 53.71,69.81 155.36,490.92 155.87,610.35l40.55 0.24c379.17,-797.17 534.36,-2206.51 473.17,-3124.01 -60.27,-903.34 -271.18,-1719.5 -627.02,-2524.27 -44.25,-100.06 -96.78,-251.6 -174.4,-298.04 -10.55,61.1 -174.87,314.61 -220.91,389.51 -356.14,579.46 -379.72,834.34 -967.39,808.76z"/>
  <path class="fil3" d="M5116.89 3426.53c48.99,107.1 76.22,49.23 131.4,189.55 35.59,90.46 57.13,153.92 105.11,217.45l-45.64 32.94 49.13 1.47c-119.69,22.65 -34.43,7.38 -69.87,37.59 239.08,-15.24 248.52,59.99 266.03,401.45 19.78,386.37 -24.96,900.51 119.3,1322.47 50.05,146.41 168.31,402.23 267.97,453.56 -1.42,-73.25 -2.57,-145.89 -3.37,-219.24l4.88 -175.65c11.09,-52.16 4.15,-24.24 15.81,-43.4 65.23,127.56 12.65,355.53 64.67,493.75 70.11,186.36 149.62,210.72 371.52,160.12 -1.08,-158.47 -27.94,-513.17 5.9,-654.13l37.45 -78.26c30.83,59.24 12.96,208.77 13.36,277.68 0.59,101.1 -2.22,212.58 13.17,309.03 33.18,40.36 43.02,83.78 73.04,128.43 114.67,170.55 291.9,132.7 450.66,137.37 0.75,-172.04 -14.54,-343.35 -4.02,-514.54 5.48,-89.34 11.62,-137.87 24.86,-230.45 25.58,-178.97 40.66,-139.54 94.32,-149.45 20.25,131.61 -66.08,765.64 -6.02,891.45 102.14,25.34 201.83,21.24 319.85,20.48 170.83,-1.06 153.58,8.78 258.84,-66.43l33.06 -563.11 46.04 67.57c2.6,5.21 15.53,34.05 18.15,39.48l171.73 369.64c17.85,42.36 17.54,37.14 36.8,82.85l78.32 158.45c39.72,90.72 20.68,214.69 29.55,337.62 10.52,145.58 50.27,245.57 44.74,359.94 24.19,91.18 93.76,155.99 155.48,206.77 151.93,125.01 94.96,46.16 229.41,95.56 45.29,-68.53 78.84,-61.12 110.44,-167.3 22.28,-74.93 42.6,-151.44 59.21,-222.47 30.31,-129.56 28.49,-418.16 70.45,-492.5 -107,-159.01 86.09,-681.86 -54.09,-808.26 -4.86,83.07 15.5,41.37 -9.63,115.03 -103.81,9.36 -394.49,55.76 -471.64,-50.7l-103.97 -232.14c-2.03,-4.42 -4.37,-9.68 -6.4,-14.09 -97.65,-212.21 -142.61,-187.86 -241.73,-522.54 -96.52,-325.87 -236.04,-480.84 86.45,-562.45 279.25,-70.66 211.35,12.27 228.13,-95.04 -22.68,115.64 74.84,99.15 139.07,115.08 -40.19,-156.94 -61.31,-223.35 -145.04,-326.17l-1396.76 -1620.89c-40.97,-69.57 -16.05,12.39 -33.96,-88 16.78,-37.12 10.13,-12.7 -30.58,-14.99l-293.46 -338.96c-337.74,60.4 -645.59,317.77 -882.81,551.95 -259.17,255.84 -361.83,595.51 -425.31,676.43z"/>
  <path class="fil3" d="M12431.55 4369.07c4.44,6.73 10.62,27.14 11.73,21.15 1.01,-5.52 23.27,18.29 17.96,10.59l-18.06 1.47 -29.66 10.1c-9.28,124.67 -157.41,358.69 -220.92,432.77 -115.89,135.22 -882.29,595.88 -1115.31,763.65 -394.72,284.16 -327.91,755.33 -634.42,1243.86 -134.28,214.02 -113.85,149.43 -173.58,443.34 -113.86,500.03 -610.7,631.24 -495.73,784.78 44.53,59.49 131.36,47.46 244.78,43.14 247.86,-13.29 491.22,-239.56 583.12,-353.62 100.48,-124.72 600.11,-263.37 664.58,-266.06 94.85,807.13 80.88,485.07 -84.67,1104.11 -80.05,299.24 -264.06,772.83 -5.48,982.82 92.06,33.16 95.34,53.76 214.19,41.42 117.48,-382.93 259.88,-716.96 405.68,-1049.64 82.24,-187.68 171.3,-328.86 178.48,-560.51 4.03,-130.22 -11.02,-609.9 57.6,-669.66 70.54,64.17 32.36,294.33 32.6,409.26 0.3,135.72 13.68,331.62 -26.11,447.99 -61.9,181.06 -257.51,511.29 -286.28,666.9 396.92,-78.77 386.35,-224.24 543.07,-533.8 81.4,-160.78 88.85,-610.94 121.49,-820.9 16.24,-104.31 1.84,-63.98 54.8,-79.16 45.14,92.84 -15.58,482.33 -24.85,619.21 -19.73,290.53 -137.94,328.86 -179.33,515.81 127.91,-46.8 219.85,-184.81 327.42,-256.79 76.32,-155.21 80.56,16.22 125.1,-375.82 7.67,-67.59 19.75,-387.05 71.36,-417.14 41.11,80.94 -20.77,408.72 -21.21,533.54 105.27,-77.65 128.94,-175.04 176.35,-323.48 40.93,-128.1 91.81,-224.79 136.03,-360.44 -78.99,-26.17 -43.26,100.46 -298.98,14.47l-616.32 -185.05c-308.57,-92.98 -500.83,-73.08 -543.5,-235 -33.09,-125.67 143.77,-846.54 188.25,-947.33 49.82,-112.92 101.29,-109.38 134.83,-150.54 19.65,-24.12 -26.84,45.57 15.55,-25.75 92.72,-155.99 92.72,-112.62 221.17,-193.92 151.75,-96.05 310.57,-234.5 496.35,-286.26 298.53,-83.14 385.5,14.87 601.97,125.39 453.96,231.79 194.89,352.43 277.42,468.73 56.61,-124.42 109.64,-501.68 270.99,-540.33 -26.65,-33.63 21.87,-42.74 -28.68,-25.92l29.72 -23.97 181.78 -342.06c-289.54,-479.89 -781.71,-994.62 -1345.14,-1129.04 -37.03,100.93 -139.05,409.9 -236.14,467.69z"/>
  <path class="fil4" d="M13045.44 2072.35l-652.76 1075.45c-112.88,186.17 -251.78,359.49 -221.39,658.68 17.21,169.31 147.88,523.68 242.23,605.9l29.66 -10.1 18.06 -1.47c5.31,7.7 -16.95,-16.11 -17.96,-10.59 -1.11,5.99 -7.29,-14.42 -11.73,-21.15 -7.39,-44.72 -123.05,-255.49 -154.72,-350.78 -46.54,-139.99 -74.83,-303.66 -35.45,-462.15 74.37,-299.22 357.63,-353.54 685.66,-316.75 568.56,51 1282.54,752.54 1447.41,1222.07 59.16,220.94 153.09,439.21 38.06,665.98 -122.59,241.68 -272.29,219.88 -581.46,245.04l-29.72 23.97c50.55,-16.82 2.03,-7.71 28.68,25.92 587.67,25.58 611.25,-229.3 967.39,-808.76 46.04,-74.9 210.36,-328.41 220.91,-389.51 45.36,-105.82 371.74,-314.25 258.98,-1050.58 -44.13,-288.29 -295.3,-626.4 -511.28,-823.39 -351.3,-320.38 -903.48,-674.19 -1388.45,-554.8 -175.27,43.14 -152.52,92.35 -211.55,158.71l-120.57 118.31z"/>
  <path class="fil5" d="M16933.34 11385.02c-245.15,125.19 -500.8,289.77 -748.29,430.62 -128.5,73.13 -240.06,139.54 -368.58,212.08 -111.29,62.83 -280.31,175.75 -386.32,215.66l-1796.7 1033.7c-126.94,113.11 -5042.51,2897.83 -5131.92,2979.18 -154.53,-65.68 -371.25,-206.5 -530.87,-298.98l-1060.54 -616.66c-43.9,-27.56 -79.84,-41.93 -130.65,-69.07l-3569.44 -2064.51c-359.24,-206.05 -702.11,-412.73 -1064.93,-614.39 -522.07,-290.13 -1077.72,-636.34 -1597.1,-920.4l-393.47 -225.97c-148.18,-85.08 -47.2,-63.46 -154.53,-73.04l9.65 268.09 1321.78 767.46c1104.3,612.43 2336.43,1385.31 3433.26,1981.32 508.02,276.04 1080.71,639.05 1595.58,921.72 102.57,56.31 2065.45,1210.54 2110.36,1205.2 45.53,-5.4 1892.99,-1088.95 2111.81,-1213.2 348.51,-197.93 696.58,-403.83 1052.34,-607.07l1064.36 -613c690.31,-419.06 1452.13,-811.82 2114.83,-1222.97 578.84,-359.12 1616.47,-894.78 2112.67,-1222.46l6.7 -253.31z"/>
  <path class="fil4" d="M3688.29 1627.14c504.21,543.47 407.21,1413.14 438.01,1500.57 70.54,98.91 140.77,162.06 222.33,248.74 79.48,84.51 158.23,173.48 237.84,261.89 188.32,209.14 287.15,293.67 700.55,267.19 35.44,-30.21 -49.82,-14.94 69.87,-37.59l-49.13 -1.47c-150.09,-12.24 -238.87,25.18 -396.26,-31.17 -125.57,-44.98 -193.82,-107.43 -253.43,-189.27 -164.75,-226.13 -101.93,-445.3 -56.1,-723.06 113.68,-524.34 761.98,-1142.15 1276.24,-1268.93 333.25,-53.64 534.31,-82.36 740.08,132.49 158.59,165.6 205.62,493.82 100.18,750.58 40.71,2.29 47.36,-22.13 30.58,14.99 96.17,-91.12 67.28,-479.26 15.46,-613.38 -60.82,-157.36 -796.79,-968.64 -980.7,-1157.08 -41.8,-42.81 -6.44,-21.5 -45.5,-32.99l-56.47 -66.41c-277.86,-357.77 -896.83,-157.57 -1201.27,28.79 -242.57,148.51 -796.2,677.52 -792.28,916.11z"/>
  <path class="fil6" d="M5169.14 7852.08c40.99,370.27 -57.35,607.28 -160.34,873.6 -46.37,119.91 -257.73,703.13 -118.11,817.25 39.69,-28.88 45.73,-17.46 94.37,-37.66 249.47,-103.56 -194.93,-22.92 103.04,-91.28 74.24,-17.04 69.4,-13.03 140.3,-37.81 223.01,-78 169.3,-66.22 337.04,-187.95 3.57,-2.57 8.48,-5.8 12.13,-8.3l25.59 -15.39c47.62,-31.34 11.35,23.13 54.77,-43.05 1.39,2.36 0.42,4.79 0.42,8.19 -0.09,91.38 -28.27,6.82 -0.42,43.85 23.98,-32.99 46.23,-28.79 94.23,-57.75 99.17,-59.82 -2.38,-48.07 96.48,-46.75 76.32,1.04 169.02,59.02 282.41,27.57 146.41,-40.64 399.54,-155.19 332.21,-281.48 -113.09,-54.86 -92.96,44.56 -205.17,5.9 38.06,-79.27 157.86,-55.9 254.12,-84.93 94.14,-28.41 121.28,-118.28 160.83,-214.78 -5.97,-3.07 -14.75,-13.36 -18.5,-7.91l-54.59 -18.36c-73.42,-15.81 -121.02,0.76 -179.4,27.31 53.52,-108.11 138.01,-98.29 260.87,-121.02 120.99,-22.37 250.58,-59.54 374.47,-18.34 27.31,100.99 -44.34,177.42 109.36,176.98l31.2 -115.22c215.84,162.32 54.54,105.05 419.51,114.72 -31.27,-45.43 -146.56,-115.28 -199.07,-135.18l-94.25 -42.83 133.69 -41.49c64.57,-1.63 -20.27,-45.57 19.96,8.17l38.66 -22.56c56.64,-21.15 51.87,-13.24 96.73,-7.01 -68.95,-27.97 -203.52,-34.22 -267.54,-25.33 -272.27,37.88 -164.99,42.91 -545.62,77.08 -94.12,8.45 -178.2,33.04 -270.74,46.82l44.28 -59.85c76.27,-111.48 20.67,-104.87 87.53,-164.58 -21.88,-13.88 -141.22,-185.61 -295.56,14.85 -126.33,164.06 -155.17,122.71 -257.07,34.03 128.4,-178.68 99,-274.84 330.98,-358.6 264.83,-95.6 372.05,9.04 592.94,-0.57 -43.5,72.55 -106.6,90.39 -201.78,99.48 97.49,81.41 32.95,55.81 47.67,73.49 34.84,-41.07 227.19,-58.13 217.26,-125.34 -0.24,-1.63 -3.12,-6.75 -3.66,-8.43l-22.61 -46.37c79.44,-74.64 212.89,-58.81 320.08,-114.39 33.42,-17.32 78.99,-59.63 87.13,-104.31l-235.92 46.83c55.15,-144.34 97.58,10.69 106.5,-290.07 -76.08,28.56 -42.36,1.92 -92.81,66.74 -187.71,241.17 94.58,198.81 -185.38,173.51 12.16,104.52 49.37,51.18 -7.74,92.72 -87.81,63.86 2.24,-38.49 -82.95,38.47 -69.55,-45.03 9.27,-33.99 -97.8,-68.06 -42.69,-13.62 -86.58,-8.81 -129.65,-27.99 129.75,-95.51 278.8,38.79 370.46,-146.44 -31.55,-83.85 -125.83,-157.01 -259.85,-123.35 -73,18.33 -199.77,112.14 -227.71,-9.28 -48.24,-34.34 19.42,-101.36 44.84,-134.75 75.37,-5.48 221.38,-5.26 295.67,3.61l223.89 38.42c-21.66,-27.38 -24.59,-33.65 -40.83,-55.58l-37.61 -44.65c-141.15,-122.31 -53.34,-68.98 -101.46,-125.57 -81.18,13.66 -104.85,59.97 -202.79,31.55 50.55,-38.18 135.25,-52.95 200.86,-80.92 4.93,-2.1 14.32,-0.83 17.93,-9.16 3.68,-8.54 12.63,-5.68 18.1,-9.84 -0.63,-79.58 5.36,-216.59 -34.1,-286.4 -131.33,1.44 -24.61,2.03 -93.43,34.43 -6.51,3.07 1.84,36.86 -48.38,8.28 -59.4,-33.81 -0.73,-39.05 -6.77,-97.91 -101.05,-11.3 -161.21,-7.86 -241.73,-56.66l45.03 53.21c3.52,3.94 9.72,10.08 14.13,15.51 -163,5.64 -151.32,-50.01 -161.11,-61.24 -118.21,-135.58 -47.74,-84.72 -196.54,-178.58 -26.78,-16.92 -13.14,-12.18 -37.33,-25.86 -95.84,-54.19 -92.01,-17.92 -118.85,49.37 -86.87,-6.9 -86.84,-23.16 -145.06,-23.98 -14.96,139.83 48.33,49.44 273.89,228.09 109.81,86.94 295.37,190.4 236.26,361.52 -79.65,-40.55 6.06,-56.76 -147.03,-89.21 6.28,116.44 25.47,222.4 -3.04,335.92 -29.29,-14.8 -36.46,-56.05 -59.26,-94.94l-57.02 -61.55c-132.72,-48.78 -47.71,159.34 -93.31,228.18 -21.26,32.1 -41.79,68.98 -63.72,99.69 -25.49,35.68 -62.14,51.99 -60.08,85.73 -40.99,-196.2 72.5,-130.83 14.68,-340.75l-184.79 15.32c11.8,-187.76 84.58,-90.37 64.64,-234.91l-96.45 -197.62c-83.68,4.57 -170.65,74.05 -224.34,123.87 -119.83,111.15 -3.46,152.36 -8.47,291.67 -81.51,1.01 -131.99,-38.9 -224.29,-46.59 -5.83,94.28 -8.45,73.87 24.85,161.96 58.51,154.79 87.77,150.4 110.45,266.68 20.27,104 45.19,417.69 -37.12,461.37 31.24,-98.48 24.82,-113.28 -16.26,-203.76 -111.42,29.12 -45.95,78.4 -121.47,82.5 8.99,-125.78 47.2,-132.84 -9.96,-271.32 -100.18,19.47 -157.34,94.3 -175.6,197.32z"/>
  <path class="fil7" d="M8930 11744.34c-81.3,577.06 774.39,1019 1285.3,1109.67 7.69,361.6 46.13,587.49 157.08,925.36 31.71,96.62 72.59,168.48 100.91,263.49 202.86,70.85 468.94,65.28 697.72,49.44 58.12,-30.86 224.57,-37.33 297.61,-61.1 301.46,-98.08 659.79,-375.32 861.73,-595.51 134.97,-147.16 215.47,-251.45 314.52,-424.88 28.93,-50.65 99.16,-204.73 131.23,-239.7 12.77,-85.93 77.81,-214.71 109.74,-321.33 31.01,-103.44 61.12,-230.62 65.06,-348.68 9.68,-108.8 43.4,-579.51 -94.35,-662.73 -142.92,-6.53 -273.16,-119.03 -404.21,-116.86 -147.94,2.45 -245.93,100.93 -258.01,255.06 38.3,52.87 52.06,24.4 117.88,58.44 12.22,251.83 -7.98,152.19 187.73,87.08 125.57,-41.8 267.17,-40.29 371.81,13.12 6.11,121.16 -0.26,41.46 -19.02,67.85 -22.66,94.14 -201.33,393.07 -257.42,497.14 -67.88,125.88 -56.95,130.63 -176.27,205.04 -69.07,43.04 -190.09,111.86 -269.93,132.77l-36.08 21.5c-158.1,89.13 -562.8,183.72 -775.55,197.95 -223.28,33.58 -162.41,28.96 -312.41,-55.22 -27.83,-377.05 -29.31,-310.81 83.68,-428.64 71.13,-74.13 23.22,-102.61 132.23,-131.43 78.75,-20.79 80.78,14.64 140.25,-95.24 343.96,1.18 353.83,86.77 468.17,157.29l1.39 -0.88c-53.36,-38.18 -9.89,3.92 -20.98,-39.34 -76.42,-40.92 -76.39,-83.09 -162.01,-99.49l-201.92 -35.83c-93.78,-10.76 -98.17,51.03 -166.8,77.03 -107.73,40.85 -82.34,-19.56 -164.13,68.98 -29.95,-34.9 -32.83,-27.16 -61.86,-56.75 -35.35,-36.09 -28.69,-17.96 -52.13,-71.2 46.3,-32.71 95.58,-61.5 165.1,-96.43l132.77 -50.81c34.86,-13.85 30.73,-13.71 41.99,-27l-251.53 34.08c-43.3,27.8 54.28,-13.78 -45.4,18.62 -1.54,-97.61 23.22,-88.62 -48.07,-104.36 36.58,52.98 23.57,50.69 21.97,126.87 -21.97,17.8 -99.21,85.43 -119.23,98.04 -56.35,35.51 -263.72,63.97 -374.59,229.62 -0.14,231.75 203.14,289.56 222.9,414.24 20.39,128.93 14.77,29.5 -12.09,74.93 -113.61,30.11 -382,-25.2 -505.48,-58.08 -232.4,-84.74 -459.55,-80.05 -815.24,-327.44l-166.02 -134.12c-3.07,-2.57 -7.72,-6.13 -10.88,-8.66 -136.76,-109.1 -20.06,-4.15 -112.69,-147.9 -29.47,-45.73 -45.12,-60.58 -69.74,-107.12 -40.99,-77.43 -83.7,-176.9 -84.32,-280.24 -1.29,-220.44 88.05,-412.28 210.25,-512.89l11.47 -57.11c-3.33,-93.1 7.41,-20.55 -19.61,-55.17 -149.95,219.64 -207.98,194.69 -262.52,568.53z"/>
  <path class="fil3" d="M2486.82 9967.16c-37.52,188.18 -62.68,371.55 -18.98,562.26 37.24,162.55 133.51,350.21 230.01,407.13l18.97 -6.08c-253.39,-150.52 -253.65,-622.96 -25.79,-750.63l4.22 -16.83c-98.01,37.48 -161.09,200.17 -174.42,296.36 -6.33,-6.46 -79.11,3.05 -56.38,-200.5 6.77,-60.46 18.31,-135.96 26.1,-183.79l58.17 -191.04c341.25,-495.14 217.45,-735.57 -32.73,-1374.72 -51.94,-132.7 -174.5,-605.63 -81.89,-667.7 3.75,-161.51 94.3,-248.12 172.2,-332.42 184.2,-199.3 621.47,-211.17 734.89,-741.83 116.84,56.95 179.9,83.31 332.23,97.94l23.37 246.99 222.8 -13c37.71,65.44 67.19,130.86 112.69,190.75 121.75,160.29 233.8,157.06 310.64,563.77 30.14,196.26 26.52,457.67 3.37,651.75 -12.1,101.57 -31.29,191.93 -40.63,295.68 -8.76,97.04 6.67,238.73 -72.12,281.33 85.68,6.06 22.23,-0.19 32.63,55.79l4.06 357.79c17.21,139.07 68.77,238.47 107.05,368.67 86.63,294.71 30.49,516.88 75.38,647.83l22.27 86.56c2.36,24.9 -1.55,66.11 -4.03,84.04 27.49,-95.36 291.29,-214.78 369.78,-263.75 -6.18,-160.78 -16.33,-179.64 57.87,-239.67 24.87,57.93 49.62,131.82 102.68,175.62 -12.13,-26.26 -60.82,-121.46 -68.37,-129.94 -69.29,-77.59 -51.16,21.06 -94.05,-125.62 176.88,72.71 132.45,49.63 212.28,200.25l51.33 -17.18c31.32,-264.15 -95.65,-430.84 -153.94,-628.53 -66.1,-40.59 -45.76,-46.49 -57.79,-111.51 -139.62,-114.12 71.74,-697.34 118.11,-817.25 102.99,-266.32 201.33,-503.33 160.34,-873.6 27.44,-95.42 -98.93,-291.08 -139.17,-341.35 -48.1,-60.08 -233.87,-170.98 -309.06,-211.97 -111.88,-61 -246.92,-136.21 -311.35,-205.64 -50.22,-54.12 -147.52,-265.57 -155.05,-350.1 114.27,-102.33 147.48,-111.46 153.4,-319.35 4.65,-163.48 -19.89,-267.48 -160.71,-352.44 -20.56,24.15 -46.61,4.35 -21.71,50.84 120.02,1.51 153.58,137.79 152.07,200.14 -2.76,112.55 -61.78,168.06 -158.16,220.9l-25.06 -209.28c-62.21,56.7 -119.58,136.54 -229.82,167.32 -76.53,21.35 -267.05,53.28 -325.6,10.9 -198.07,-24.99 -172.86,-96.19 -314.53,-163.31 45.31,185.78 137.3,165.55 322.53,234.44l22.49 221.48c-265.89,-4.15 -394.91,-117.86 -484.47,-310.62 48.59,61.27 99.38,103.51 204.7,129 -57.94,-140.37 -172.18,-88.01 -198.99,-264.93 -11.78,-77.86 6.35,-110.28 47.93,-156.91l77.41 -83.85c29.43,-41.04 -4.16,25.34 28.39,-46.05 -147.12,33.92 -208.41,129.31 -202.63,311.45 8.71,275.57 6.47,201.89 152.95,360.27 -123.73,447.28 -208.6,393.14 -547.06,604.07 -290.46,181.04 -421.42,328.39 -369.38,814.52 34.27,320.1 194.84,574.57 273.26,884.77 148.11,586.02 -91.9,502.78 -164.7,920.78z"/>
  <path class="fil8" d="M2695.25 10163.01l-4.22 16.83c52.53,389.2 -104.27,221.76 174.21,612.55 58.36,-9.63 34.85,-19.59 96.71,-18.86 51.35,0.59 94.49,45.5 152.03,-40.07 35.8,-53.24 22.84,-40.76 16.87,-119.84 150.21,11.3 84.86,34.5 193.18,-50.72 55.68,-43.8 125.03,-102.61 182.57,-123.96 -13.12,147.63 -210.72,168.54 -266.18,301.71 243.67,35.14 338.91,134.1 405.84,346.47 159.68,7.29 334.36,-0.35 486.46,-33.63 84.2,-18.41 289.71,-130.69 336.79,-175.53l1.39 -194.7c2.48,-17.93 6.39,-59.14 4.03,-84.04l-22.27 -86.56c-44.89,-130.95 11.25,-353.12 -75.38,-647.83 -38.28,-130.2 -89.84,-229.6 -107.05,-368.67l-4.06 -357.79c-10.4,-55.98 53.05,-49.73 -32.63,-55.79 -200.93,27.75 -277.18,67.3 -494.25,1.44 -77.36,-23.48 -133.78,-49.47 -198.47,-84.06 -55.32,-29.6 -118.71,-68.82 -154.84,-87.11 -179.61,-62.33 -275.14,-142.14 -484,-110.23 -82.88,165.43 103.84,452.45 18.9,741.94l-119.29 313.71c-58.27,101.08 -61.31,222.14 -106.34,304.74z"/>
  <path class="fil9" d="M13082.28 7377.96c49.37,-207.91 169.26,-492.14 246.78,-695.43 75.12,-196.98 195.74,-501.02 229.96,-719.83 -82.53,-116.3 176.54,-236.94 -277.42,-468.73 -216.47,-110.52 -303.44,-208.53 -601.97,-125.39 -185.78,51.76 -344.6,190.21 -496.35,286.26 -128.45,81.3 -128.45,37.93 -221.17,193.92 -42.39,71.32 4.1,1.63 -15.55,25.75 -33.54,41.16 -85.01,37.62 -134.83,150.54 -44.48,100.79 -221.34,821.66 -188.25,947.33 42.67,161.92 234.93,142.02 543.5,235l616.32 185.05c255.72,85.99 219.99,-40.64 298.98,-14.47z"/>
  <path class="fil10" d="M7516.15 14045.2c215.25,7.06 473.72,27.78 673.34,-27.45 -52.08,-177.11 -661.51,138.56 -750.58,-188.6 256.58,-128.9 204.3,-158.5 150.47,-420.97 -77.03,-375.56 -398.71,-284.14 -727.26,-225.59 -173.39,30.89 -162.86,28.53 -299.17,-31.58 -114.18,-50.36 -187.95,10.48 -322.37,-17.81 -125.08,-26.36 -130.98,-80.1 -275.53,-64.29 -184.95,20.23 -87.41,-59.61 -263.67,-47.53 -104.69,7.15 -208.91,56.59 -324.21,44.32 -114.08,-12.1 -101.03,-75.8 -214.15,-132.91 -177.53,-89.63 -492.59,-319.75 -603.76,-456.08 -158.55,-194.42 -4.77,-426.83 -160.13,-530.97 -144.5,36.98 -91.92,243.85 -94.18,333.13 -3.17,125.41 -59.97,77.5 -74.6,217.45 -38.99,372.94 325.11,712.7 606.06,862.51 90.67,48.36 143.2,92.11 215.15,144.15 77.03,55.72 141.03,101.76 225.12,154.34 169.44,105.98 867.52,315.03 1114.11,341.72 273.49,29.59 339.67,80.05 579.58,143.77 125.97,33.46 449.99,110.68 526.9,-47.84l18.88 -49.77z"/>
  <path class="fil11" d="M9424.2 1239.42c58.26,-30.51 233.84,-143.88 259.76,-210.95 -125.6,-175.51 -292.92,30.68 -390.1,78.54 -127.61,-118.94 -305.41,-269.6 -486.96,-126.61 -152.57,120.14 -942.54,592.27 -1102.94,640.7 -73.21,22.09 -237.25,136.71 -281.71,212.23 -218.08,370.42 400.79,1181.44 821.12,1041.28 189.58,-63.22 290.84,-276.87 378.44,-360.74l629.09 -609.39c90.74,-79.34 230.36,-180.49 250.82,-248.88 45.92,-153.47 -47.62,-286.24 -77.52,-416.18z"/>
  <path class="fil12" d="M2692.56 2156.74c-38.35,143.27 -114.77,105.06 -140.98,378.16 -38.68,402.98 157.07,814.51 428.66,1051.49 215.91,188.4 404.35,312.6 605.23,6.02 85.88,-131.07 89.21,-207.04 257.45,-243.73 253.29,-55.27 161.79,-172.09 283.38,-220.97 -30.8,-87.43 66.2,-957.1 -438.01,-1500.57 -204.37,-81.39 -453.3,-249.75 -580.64,138.1 -40.73,124.09 -64.83,204.92 -141.95,288.63 -142.49,154.6 -169.11,104.9 -273.14,102.87z"/>
  <path class="fil5" d="M4469.51 10877.96c-47.08,44.84 -252.59,157.12 -336.79,175.53 -152.1,33.28 -326.78,40.92 -486.46,33.63l1.8 131.73c101.76,0.71 205.74,5.55 307.61,0.07 93.72,-5.07 177.92,-46.84 263.54,-0.19 -82.43,58.91 -206,55.82 -300.66,58.39 -235.07,6.39 -295.53,-29.41 -287.72,43.16 1005.69,15.96 212.13,-299.22 1288.25,297.59 117.33,65.09 261.43,142.8 364.59,219.38 166.89,13.15 434.65,-51.77 476.14,139.07 29.03,62.38 11.21,67.24 8.75,146.89 65.94,14.23 586.05,314.32 660.34,361.71l493.99 285.79c101.73,44.41 92.48,-14.96 177.06,-1.02 36.51,125.36 -189.03,9.16 392.44,330.58 357.58,197.67 329.68,257.83 543.28,136.76l1022.54 -582.81 1.37 -47.25 -582.27 330.14c-115.42,63.2 -493.08,302.35 -585.19,324.49l-3.57 -664.18c-206.54,-37.24 -394.27,-192.72 -580.78,-289.95 -47.53,-24.78 -125.34,-90.12 -164.63,-102.61l-0.83 472.49c-22.32,17.91 -6.77,8.21 -42.92,24.26l-126.19 31.88 30.99 -595.63 -543.34 -321.19c-184,-103.93 -368.67,-211.49 -545.99,-314.08l-1069.86 -614.37c-1.82,103.11 -1.63,207.32 -1.21,310.55 1.07,254.8 29.27,240.19 -45.05,273.4 -55.2,-83.66 -16.85,-496.32 -21.57,-627.04l-277.31 -164.42c-2.74,34.58 -1.44,89.85 -5.1,118.75 -12.32,97.68 11.23,30.54 -25.25,78.5z"/>
  <path class="fil13" d="M15469.65 10559.48c-41.06,129.37 -42.64,142.31 -126.09,235.64 -39.03,43.69 -50.31,51.54 -88.8,89.7 -128.29,127.18 -104.88,76.33 -196.28,144.27 -36.74,27.3 -15.48,0.23 -29.05,32.78 -0.54,1.34 -0.54,6.82 -0.92,8.12 -18.36,63.95 -148.21,77.78 -256.43,86.13l11.87 55.89c115.89,777.06 -866.62,833.86 -1050.2,562 -91.92,-136.13 -4.28,-177.97 7.12,-259.55 0.76,-5.38 -25.86,-208.48 -28.41,-253.58l-115.66 56.57c58.36,159.93 -17.06,1653.33 18.22,1898.34 0.89,6.14 1.77,11.4 2.9,17l15.53 44.29 1796.7 -1033.7 2.62 -1377.72c-65.94,53.71 -265.59,189.29 -373.37,219.17 53.5,-27.61 312.6,-170.46 354.79,-220.09 124.02,-145.82 149.48,-267.57 114.2,-445.13 -41.7,34.59 -62.32,25.25 -58.74,139.87z"/>
  <path class="fil14" d="M10018.34 8123.92c-160.29,41.04 -126.07,-14.59 -305.14,78.51 -84.82,44.11 -193.52,85.29 -259.32,134.62 162.09,40.04 179.03,12.62 259.1,33.98 90.79,24.21 54.52,33.89 126.35,83.87 170.3,118.52 198,49.54 453.37,-113.02 154.98,-98.67 307.86,-265.82 308.71,96.97 -122.91,37.62 -324.75,212.19 -447.87,253.89 40.12,163.4 83.04,122.12 145.82,222.12 91.31,-50.88 171.38,-114.86 269.43,-177.05 102.17,-64.8 182.15,-165.67 317.58,-111.13 64.62,170.11 -74.97,202.46 -187.5,279.33 -105.34,71.95 -209.2,151.29 -327.58,209.21 30.37,110.63 90.34,162.5 99.45,264.22 15.1,168.85 -66.84,114.03 -67.47,320.64 0,6.66 315.81,-200.24 368.32,-265.23 67.16,61.45 276.04,123.89 404.3,156.32 -258.58,-209.99 -74.57,-683.58 5.48,-982.82 165.55,-619.04 179.52,-296.98 84.67,-1104.11 -64.47,2.69 -564.1,141.34 -664.58,266.06 -91.9,114.06 -335.26,340.33 -583.12,353.62z"/>
  <path class="fil15" d="M2434.1 7841.62c-92.61,62.07 29.95,535 81.89,667.7 250.18,639.15 373.98,879.58 32.73,1374.72l-58.17 191.04c-7.79,47.83 -19.33,123.33 -26.1,183.79 -22.73,203.55 50.05,194.04 56.38,200.5 13.33,-96.19 76.41,-258.88 174.42,-296.36 45.03,-82.6 48.07,-203.66 106.34,-304.74l119.29 -313.71c84.94,-289.49 -101.78,-576.51 -18.9,-741.94 208.86,-31.91 304.39,47.9 484,110.23 99.12,-16.1 164.77,-72.95 182.66,-157.41 244.09,51.33 158.36,-55.46 137.4,-200.19 -12.67,-87.56 207.06,-401.29 252.94,-454.01 41.58,-47.79 50.43,-40.57 92.06,-87.93 75.73,-86.14 -26.41,-52.49 106.76,-75.78 28.68,-66.67 10.22,-6.61 58.58,-75.59 -18.83,-37.85 -17.14,-60.2 -37.03,-95.58 -28.89,47.6 -3.59,12.2 -17.84,56.55l-902.3 62.68c-115.5,-15.53 -56.69,-27.38 -97.16,-46.38 -56.24,-26.4 -54.31,-13.99 -96.71,6.87 43.56,22.44 56.19,6.4 98.6,40.07 -48.03,13.95 -27.8,-12.29 -43.52,34.62 53.59,-17.03 24.54,-10.55 83.92,-22.86 -67.97,113.79 0.47,37.9 -6.37,168.71 -26.88,-221.62 -436.48,-294.12 -519.15,-63.04l-15.36 -42c-19.26,-34.91 35.54,-0.38 -17.7,-17.61 -22.32,42.69 -31.6,106.51 -44.51,159.63 -38.06,-56.57 25.68,-84.13 -57.56,-159.32 -7.17,85.03 -36.74,145.32 -40.23,240.86 -102,-135.8 -59.24,-217.36 -69.36,-343.52z"/>
  <path class="fil16" d="M6463.71 6152.91c13,301.7 26.57,292.19 162.6,471.57 80.52,48.8 140.68,45.36 241.73,56.66 6.04,58.86 -52.63,64.1 6.77,97.91 50.22,28.58 41.87,-5.21 48.38,-8.28 68.82,-32.4 -37.9,-32.99 93.43,-34.43 39.46,69.81 33.47,206.82 34.1,286.4 -5.47,4.16 -14.42,1.3 -18.1,9.84 -3.61,8.33 -13,7.06 -17.93,9.16 -65.61,27.97 -150.31,42.74 -200.86,80.92 97.94,28.42 121.61,-17.89 202.79,-31.55 48.12,56.59 -39.69,3.26 101.46,125.57l37.61 44.65c16.24,21.93 19.17,28.2 40.83,55.58l-223.89 -38.42c-74.29,-8.87 -220.3,-9.09 -295.67,-3.61 -25.42,33.39 -93.08,100.41 -44.84,134.75 27.94,121.42 154.71,27.61 227.71,9.28 134.02,-33.66 228.3,39.5 259.85,123.35 -91.66,185.23 -240.71,50.93 -370.46,146.44 43.07,19.18 86.96,14.37 129.65,27.99 107.07,34.07 28.25,23.03 97.8,68.06 85.19,-76.96 -4.86,25.39 82.95,-38.47 57.11,-41.54 19.9,11.8 7.74,-92.72 279.96,25.3 -2.33,67.66 185.38,-173.51 50.45,-64.82 16.73,-38.18 92.81,-66.74 -8.92,300.76 -51.35,145.73 -106.5,290.07l235.92 -46.83c-8.14,44.68 -53.71,86.99 -87.13,104.31 -107.19,55.58 -240.64,39.75 -320.08,114.39 28.49,-20.86 75.1,-20.15 128.69,-27.23 9.32,34.9 -30.96,65.37 0.87,103.55 101.65,-33.79 -21.87,-90.6 275.15,-133.01 -36.15,78.07 -31.41,60.44 -77.55,117.41 96.31,-31.36 191.3,-136.8 281.07,-182.85 27.83,72.41 -8.33,80.01 -8.42,80.1 92.67,-66.86 60.34,-92.72 120.87,-164.35 -14.3,-140.84 9.7,-261.17 14.35,-406.31 5.71,-177.61 -6.86,-296.08 -11.42,-465.08 38.02,24.95 7.98,-0.8 49.18,40.5l293.08 384.23c5.53,-114.37 -34.22,-214.36 -44.74,-359.94 -8.87,-122.93 10.17,-246.9 -29.55,-337.62l-78.32 -158.45c-19.26,-45.71 -18.95,-40.49 -36.8,-82.85l-171.73 -369.64c-2.62,-5.43 -15.55,-34.27 -18.15,-39.48l-46.04 -67.57 -33.06 563.11c-105.26,75.21 -88.01,65.37 -258.84,66.43 -118.02,0.76 -217.71,4.86 -319.85,-20.48 -60.06,-125.81 26.27,-759.84 6.02,-891.45 -53.66,9.91 -68.74,-29.52 -94.32,149.45 -13.24,92.58 -19.38,141.11 -24.86,230.45 -10.52,171.19 4.77,342.5 4.02,514.54 -158.76,-4.67 -335.99,33.18 -450.66,-137.37 -30.02,-44.65 -39.86,-88.07 -73.04,-128.43z"/>
  <path class="fil17" d="M9453.88 8337.05c-308.11,24.89 -231.01,235.59 -254.21,314.81 -25.82,88.12 3.28,136.74 23.98,312.37 9.6,81.53 53.8,160.28 119.67,204.6 69.74,46.94 0.57,60.21 105.89,233.07 49.96,82.01 -2.64,14.96 80.62,62.99l44.58 35.28c2.85,2.9 6.09,7.98 8.89,10.93l18.79 20.81c165.57,161.85 206.02,107.33 296.46,185.38 105.93,91.44 114.85,97.6 378.39,73.93 137.51,-12.34 59.71,-22.3 126.33,-91.14 0.63,-206.61 82.57,-151.79 67.47,-320.64 -9.11,-101.72 -69.08,-153.59 -99.45,-264.22 118.38,-57.92 222.24,-137.26 327.58,-209.21 112.53,-76.87 252.12,-109.22 187.5,-279.33 -135.43,-54.54 -215.41,46.33 -317.58,111.13 -98.05,62.19 -178.12,126.17 -269.43,177.05 -62.78,-100 -105.7,-58.72 -145.82,-222.12 123.12,-41.7 324.96,-216.27 447.87,-253.89 -0.85,-362.79 -153.73,-195.64 -308.71,-96.97 -255.37,162.56 -283.07,231.54 -453.37,113.02 -71.83,-49.98 -35.56,-59.66 -126.35,-83.87 -80.07,-21.36 -97.01,6.06 -259.1,-33.98z"/>
  <path class="fil18" d="M4601.97 2922.97l514.92 503.56c63.48,-80.92 166.14,-420.59 425.31,-676.43 237.22,-234.18 545.07,-491.55 882.81,-551.95l-519 -501.27c-19.21,-25.18 -8.5,-10.98 -27.8,-42.84 -514.26,126.78 -1162.56,744.59 -1276.24,1268.93z"/>
  <path class="fil1" d="M15469.65 10559.48c-3.58,-114.62 17.04,-105.28 58.74,-139.87 35.28,177.56 9.82,299.31 -114.2,445.13 -42.19,49.63 -301.29,192.48 -354.79,220.09 107.78,-29.88 307.43,-165.46 373.37,-219.17l-2.62 1377.72c106.01,-39.91 275.03,-152.83 386.32,-215.66 128.52,-72.54 240.08,-138.95 368.58,-212.08 247.49,-140.85 503.14,-305.43 748.29,-430.62 -29.36,-81.42 22.89,-20.23 -180.42,-132.4l-1144.17 -653.94c-126.31,-73.02 -37.6,-75.78 -105.25,-185.16l-33.85 145.96z"/>
  <path class="fil18" d="M12667.69 3901.38c563.43,134.42 1055.6,649.15 1345.14,1129.04l297.14 -503.87c44.8,-67.96 14.75,-34.78 64.48,-65.09 -164.87,-469.53 -878.85,-1171.07 -1447.41,-1222.07l-259.35 661.99z"/>
  <path class="fil19" d="M2434.1 7841.62c10.12,126.16 -32.64,207.72 69.36,343.52 3.49,-95.54 33.06,-155.83 40.23,-240.86 83.24,75.19 19.5,102.75 57.56,159.32 12.91,-53.12 22.19,-116.94 44.51,-159.63 53.24,17.23 -1.56,-17.3 17.7,17.61l15.36 42c82.67,-231.08 492.27,-158.58 519.15,63.04 6.84,-130.81 -61.6,-54.92 6.37,-168.71 -59.38,12.31 -30.33,5.83 -83.92,22.86 15.72,-46.91 -4.51,-20.67 43.52,-34.62 -42.41,-33.67 -55.04,-17.63 -98.6,-40.07 42.4,-20.86 40.47,-33.27 96.71,-6.87 40.47,19 -18.34,30.85 97.16,46.38l902.3 -62.68c14.25,-44.35 -11.05,-8.95 17.84,-56.55 19.89,35.38 18.2,57.73 37.03,95.58 -48.36,68.98 -29.9,8.92 -58.58,75.59 33.44,-6.07 28.8,-8.1 44.68,-15.36 5.87,-2.69 24.47,-12.89 38.65,-20.56 48.81,-26.41 53.55,-29.4 101.79,-47.79 -76.84,-406.71 -188.89,-403.48 -310.64,-563.77 -45.5,-59.89 -74.98,-125.31 -112.69,-190.75l-222.8 13 -23.37 -246.99c-152.33,-14.63 -215.39,-40.99 -332.23,-97.94 -113.42,530.66 -550.69,542.53 -734.89,741.83 -77.9,84.3 -168.45,170.91 -172.2,332.42z"/>
  <path class="fil11" d="M7788.44 7668.87l120.9 255.59c20.91,51.61 17.18,63.93 77.86,117.43l20.88 66.48c31.63,85.21 29.6,40.92 66.25,114.1 41.86,83.66 53.62,161.44 143.27,276.09 53.41,110.94 120.43,219.15 184.34,322.46 -3.09,4.25 -8.76,4.75 -10.48,11.76 -3.33,13.71 -59,43.04 -85.57,98.22 -24.88,51.63 -6,79.76 -22.05,157.52 -17.86,86.5 -28.88,48.69 17.16,125.58 61.31,102.37 30.59,59.85 39.55,186.39 31.6,24.94 82.32,58.36 110.4,83.54 77.65,69.59 29.62,46.56 60.63,143.65 27.4,85.76 383.04,343.99 411.5,385 108.77,156.75 17.49,59.24 262.71,149.83 -40.8,-46.01 -40.35,-41.67 -113.58,-59.61 -117.34,-28.74 -58.1,16.8 -122.36,-78.8 -74.27,-110.47 -128.22,-82.69 -215.25,-184.76l-193.95 -206.52c-63.36,-132.25 9.47,-148.32 -173.57,-220.89 -4.46,-116.98 18.9,-103.41 -35.8,-190.56 -60.49,-96.43 -38.63,-39.56 -17.58,-152.76 18.03,-97.09 -9.96,-115.03 49.7,-177.97 111.03,-117.12 376.55,-120.92 481.48,0.99 162.93,189.3 274.95,-19.54 370.67,278.15 45.67,142 222.22,219.31 194.6,422.88 -47.48,350 22.64,248.43 2.39,365.08 -17.82,102.64 -46.71,45.52 -94.57,123.99 -81.91,134.38 25.21,52.04 -117.64,104.83 87.48,31.58 82.32,27.87 112.71,-42.71 61.29,-142.21 9.91,-41.59 116.14,-126 26.52,-152.03 -16.17,-150.66 -19.73,-258.04 -4.72,-141.78 105.77,-249.7 -74.25,-440.65 -46.49,-49.32 -24.87,-10.22 -58.1,-82.29 -17.82,-38.65 -21.52,-59.47 -38.44,-100.75 -94.12,-229.38 -184.55,-100.72 -343.97,-213.19 -42.55,-30.02 -84.34,-106.37 -150.25,-124.58 -98.65,-27.26 -120.2,22.3 -254.29,-25.07 58.55,-75.94 -48.68,-31.17 205.91,-26.88 76.29,1.3 117.99,-5.71 177.63,34.84 97.09,66.03 63.44,137.89 272.46,139.8l-328.6 -757.78 -299.03 -638.72c-134.45,-49.4 -77.48,29.45 -229.41,-95.56 -61.72,-50.78 -131.29,-115.59 -155.48,-206.77l-293.08 -384.23c-41.2,-41.3 -11.16,-15.55 -49.18,-40.5 4.56,169 17.13,287.47 11.42,465.08 -4.65,145.14 -28.65,265.47 -14.35,406.31z"/>
  <path class="fil17" d="M6077.62 11138.83c51.52,114.95 79.3,62.04 119.89,219.68 61.47,-4.98 289.47,35.9 356.28,83.66 98.27,70.28 82.5,35.95 263.28,36.87 0.47,0 416.86,62.63 141.85,-80.38 -51.85,-26.95 -99.38,-29.2 -161.16,-42.29 -211.76,-44.96 -115.54,-45.79 -225.44,-174.14 -91.19,-106.51 -26.98,-107.12 29.19,-258.04 45.95,-123.38 77.92,-177.64 206.52,-218.23 -88.71,103.65 -44.49,94.73 -81.37,187.5 -38.42,96.69 -71.13,54.16 -72.81,202.23 124.25,30.04 78.94,86.18 144.6,162.9 81.6,95.37 110.49,-3.82 296.03,103.04 193.61,111.53 157.57,6.77 461.63,76.79 281.68,-207.16 239.25,-51.19 339.69,-84.2 59.87,-50.36 90.76,-97.07 144.36,-130.48 63.31,-39.51 36.67,-8.1 93,-53.24 52.7,-42.25 10.1,-77.65 42.36,-31.86 -124.72,-20.02 -236.68,110.73 -447.25,85.21 -125.27,-15.15 -200.77,5.67 -290.87,-4.86 -107.42,-12.53 -105.91,-77.66 -203.85,-98.43 -86.07,-18.24 -173.17,-3.14 -230.38,-69.12 -21.24,-24.5 -24.73,-49.96 -52.34,-86.66 -35.76,-47.55 -50.88,-30.87 -62.23,-91.8 -10.29,-55.11 98.64,-256.84 113.84,-270.71l76.13 -50.72c-1.25,105.16 -77.05,107.29 -76.08,247.58 55.9,106.65 96.87,38.47 114.15,199.73 344.2,18.36 269.15,131.78 565.98,125.9 163.24,-3.23 82.34,-2.5 233.14,30.11 228.56,-216.76 241.47,-16.99 384.3,-131.73 71.79,-57.68 19.09,-35.78 135.27,-105.42 40.19,-24.07 29.83,-11.04 66.86,-48.42l30.2 -35.12c44.73,-63.39 11.9,-0.8 42.65,-74.91 -92.72,25 -153.49,18.03 -228.47,52.4 -65.42,29.97 -96.45,61.14 -186.43,43.94 -125.01,-23.91 -37.43,-38.28 -172.49,-6.8 -98.46,22.96 -116.99,12.6 -202.72,-19.44 -103.65,-38.73 -109.5,-13.55 -208.76,-27.62 -96.81,-13.73 -88.01,-34.97 -138.06,-104.26 -38.94,-53.88 -89.21,-77.26 -116.2,-123.8 -38.8,-66.84 0.77,-108.77 -2.32,-199.58 -138.6,7.01 -109.12,74.86 -232.4,105.61 -208.18,51.91 -162.89,99 -310.95,98.74 -180.04,-0.31 -66.84,-66.08 -233.92,67.23l-116.51 61.9c-110.09,46 -168.57,42.13 -209.45,109.2l-83.47 217.49c-30.13,55.81 -27.96,14.84 -55.27,104.55z"/>
  <path class="fil20" d="M4890.69 9542.93c12.03,65.02 -8.31,70.92 57.79,111.51 85.83,-26.76 173.15,-93.88 246.57,-117.55 115.12,-37.14 260.96,17.18 608.42,-150.42 123,-59.33 133.76,-82.74 243.62,14.02 -94.45,56.35 -93.6,-19.21 -100.42,249.8 51.97,10.88 191.96,-25.16 236.3,-65.35l54.4 -70 25.39 44.84c49.28,75.69 117.34,52.94 -25.27,-159.2 110.91,-9.13 100.79,-14.89 200.5,-1.08 17.65,2.45 100.88,15.74 111.62,16.09 95.77,3.07 82.2,-28.84 94.47,-42.81 -53.57,-13.5 -110.85,-24.52 -158.4,-46.16 -61.73,-28.06 -68.48,-57.37 -113.39,-50.86 109.78,60.35 127.22,19.05 242.1,35.87 62.8,9.18 97.21,65.82 155.57,-17.2l26.88 -50.72c140.32,13.13 236.37,-86.7 357.25,-145.63 100.72,-49.08 74.65,-20.34 90.83,-109.43 -137.51,-2.12 -104.8,-40.28 -268.16,3.09 59.45,-60.69 172.94,-137.04 258.94,-145.65 259.78,-26.48 -64.55,-93.2 235.78,-133.88 82.15,-11.14 137.07,-47.23 205.67,-91.78l49.44 -39.18c-4.39,-3.3 -10.67,-6.94 -13.9,-8.92l-92.44 -51.7c-22.77,-138.08 5.71,-151.35 -143.96,-172.49 -40.23,-53.74 44.61,-9.8 -19.96,-8.17l-133.69 41.49 94.25 42.83c52.51,19.9 167.8,89.75 199.07,135.18 -364.97,-9.67 -203.67,47.6 -419.51,-114.72l-31.2 115.22c-153.7,0.44 -82.05,-75.99 -109.36,-176.98 -123.89,-41.2 -253.48,-4.03 -374.47,18.34 -122.86,22.73 -207.35,12.91 -260.87,121.02 58.38,-26.55 105.98,-43.12 179.4,-27.31l54.59 18.36c3.75,-5.45 12.53,4.84 18.5,7.91 -39.55,96.5 -66.69,186.37 -160.83,214.78 -96.26,29.03 -216.06,5.66 -254.12,84.93 112.21,38.66 92.08,-60.76 205.17,-5.9 67.33,126.29 -185.8,240.84 -332.21,281.48 -113.39,31.45 -206.09,-26.53 -282.41,-27.57 -98.86,-1.32 2.69,-13.07 -96.48,46.75 -48,28.96 -70.25,24.76 -94.23,57.75 -27.85,-37.03 0.33,47.53 0.42,-43.85 0,-3.4 0.97,-5.83 -0.42,-8.19 -43.42,66.18 -7.15,11.71 -54.77,43.05l-25.59 15.39c-3.65,2.5 -8.56,5.73 -12.13,8.3 -167.74,121.73 -114.03,109.95 -337.04,187.95 -70.9,24.78 -66.06,20.77 -140.3,37.81 -297.97,68.36 146.43,-12.28 -103.04,91.28 -48.64,20.2 -54.68,8.78 -94.37,37.66z"/>
  <path class="fil21" d="M11848.64 990.54c21.41,125.36 50.88,96.69 163.22,121.42l15.05 80.62c0.5,-2.88 2.22,9.46 4.93,13.36 231.82,-42.81 72.2,-61.43 288.98,-20.2 1.16,103.36 -14.39,48.11 11.66,140.32 21.99,77.85 13.8,59.3 2.26,142.59 -15.83,114.26 -17.2,199.84 -22.65,318.42 -217.26,-28.41 -164.4,-50.88 -335.59,53.1l29.69 167.37c-56.9,44.42 -98.29,84.65 -164.91,91.24 -134.45,-183.28 103.06,-255.7 173.69,-446.06 -138.83,48.95 -128.88,211.6 -298.96,338.21l-379.1 227.45c-7.43,16.49 -36.15,72.43 -37.38,90.97 -11.75,178.02 -15.27,47.61 33.86,89.09l99.03 -7.15c53.29,102.26 -70.16,126.05 -39.86,315.76 274.44,6.89 219.8,-199.11 319.58,-315.76 99.12,31.74 65.3,159.61 249.57,105.92 13,-83.17 -51.24,-164.8 -97.68,-229.91 44.39,-23.74 31.22,3 91.82,-33.65 72.74,-44.02 -41.86,-31.04 75.99,-46.28 31.01,66.17 -19.49,40.92 0.15,153.99l108.29 11.44c-8.77,35.14 -177.82,238.88 11.45,368.96 58.5,-43.76 109.93,-165.29 132.3,-246.43 52.18,-189.29 -14.84,-120.14 141.76,-210.11 16.36,-115.61 8.92,-116.55 -14.98,-203.05 16.61,9.92 16.23,21.6 60.6,46.97 20.22,-37.97 7.31,-74.29 39.98,-117.27 68.81,18.31 106.45,58.74 192.5,48.71 19.87,-115.54 5.45,-162.01 -73.85,-212.25 -125.43,-79.53 -34.73,-89.16 -98.69,-179.17 -69.85,23.41 -127.84,69.19 -173.74,111.62 -7.88,-87.17 -10.07,-180.72 0.31,-265.91 2.36,-19.36 17.09,-102.17 22.84,-120.08 35.17,-109.19 16.41,-57.82 44.54,-62.25 96.35,21.21 2.99,-6.33 77.61,104.75 89.78,133.69 91.59,185.83 142.38,177.14 119.32,-20.46 -73.96,-46.3 95.2,-53.57l-54.09 -27.82c-5.76,-209.19 -20.25,-137.38 92.89,-234.13 -30.89,-35.43 -74.93,-86.8 -86.85,-150.52 78.64,-63.15 34.58,11.09 122.58,-75.64 92.84,-91.49 73.27,-16.71 151.95,-64.24 -35.39,-84.1 -84.93,-97.11 -159.08,-137.93 96.5,-218.06 39.29,-59.76 1.13,-206.85 68.51,-71.94 318.17,-551.76 275.15,-643.73 -74.1,24.62 -98.79,174.05 -130.29,250.18 -95.82,231.53 -160.76,345.8 -297.36,523.44 -132.08,171.83 -36.2,135.67 -265.02,117.12 -36.51,88.74 23.32,56.31 -48.59,86.52 -49.25,20.67 -18.27,8.52 -98.55,-39.18l3.68 -151.65c-125.95,1.84 -93.55,0.07 -127.22,91.14 -39.79,-88.8 -73.54,-165.29 -190.41,-154.79 -40.73,134.19 -8.21,149.34 48.45,237.18 -65.67,-6.18 -82.03,-18.55 -130.22,30.58z"/>
  <path class="fil1" d="M8518.52 7524.54l299.03 638.72c29.76,-64.12 512.13,-324.57 603.22,-375l638.63 -363.41 -25.54 -46.82c-2.24,-3.32 -7.78,-10.12 -11.75,-15.12 -91.19,-37.22 -217.49,-119.8 -313.89,-174 -108.07,-60.77 -217.17,-127.3 -315.25,-184.58 -209.96,-122.6 -421.91,-252.72 -634.35,-362.06 -41.96,74.34 -40.14,362.94 -70.45,492.5 -16.61,71.03 -36.93,147.54 -59.21,222.47 -31.6,106.18 -65.15,98.77 -110.44,167.3z"/>
  <path class="fil5" d="M11171.01 14092.3c-228.78,15.84 -494.86,21.41 -697.72,-49.44 -572.2,-126.11 -1088.32,-719.78 -1340.52,-1243.93 -55.25,-114.79 -32.12,-84.2 -73.94,-107.78 -508.64,278.88 -632.3,882.01 196.28,1265.17 489.31,226.28 1255.28,288.34 1798.49,181.25 18.55,-3.66 51.19,-10.53 67.26,-16.59 53.12,-20.09 36.18,-16.07 50.15,-28.68z"/>
  <path class="fil22" d="M9059.58 12606.97l-1.37 47.25c14.64,25.75 16.95,8.02 0.62,36.93 41.82,23.58 18.69,-7.01 73.94,107.78 252.2,524.15 768.32,1117.82 1340.52,1243.93 -28.32,-95.01 -69.2,-166.87 -100.91,-263.49 -110.95,-337.87 -149.39,-563.76 -157.08,-925.36 -510.91,-90.67 -1366.6,-532.61 -1285.3,-1109.67 -49.14,193.19 54.37,719.88 129.58,862.63z"/>
  <path class="fil23" d="M14162.41 8063.88c138.43,9.11 167.18,-56.31 267.07,-4.18 70.47,36.8 152.93,185.38 395.55,-42.19 47.49,-44.53 104.95,-126.45 139.48,-179.22 140.11,-214.23 319.7,-651.91 81.86,-889.77 -187.73,-3.61 -272.81,245.11 -445.01,-19.37 -53.17,-81.66 -80.08,-121.4 -209,-63.68 -241.56,108.14 -310.26,405.82 -332.14,665.18 -28.13,333.39 -0.49,358.05 102.19,533.23z"/>
  <path class="fil24" d="M3886.74 4724.95l123.64 25.4c10.12,88.33 28.08,94.94 -39.7,154.43 119.42,200.2 366.95,432.16 655.24,509.99 651.68,175.91 688.64,-790.94 -155.63,-1161.57 -405.73,-178.11 -683.42,60.63 -583.55,471.75z"/>
  <path class="fil11" d="M14366.09 9484.08c-88.42,160.17 -122.93,333.79 -134.11,535 -4.06,72.85 19.92,287.91 -0.87,338.93 -51.03,125.17 -154.53,-24 -203.64,129.23 178.36,73.82 422.73,95.13 621.04,63.65 311.82,-49.49 305.64,-62.23 518.83,-198.35l78.45 -76.37c34.15,-45.22 39.36,-67.73 60.22,-105.99 -0.51,-119.43 -102.16,-540.54 -155.87,-610.35 -116.86,-151.91 -327.91,-218.11 -553.55,-249.26l36.63 89.92c-69.69,115.73 -137.05,84.13 -267.13,83.59z"/>
  <path class="fil19" d="M3474.58 1747.83c2.17,22.84 87.74,123.49 120.92,186.86 38.75,73.91 80.71,166.21 104.57,236.82 57.84,171.14 117.03,407.8 119.51,595.2 -130.58,-63.76 -183.3,-126.7 -238.81,-263.51 -57.25,-141.12 -69.36,-241 -60.69,-397.56l-673.82 706.9c-101.07,129.35 -139.45,107.92 -43.59,290.73 105.9,201.89 269.86,379.55 442.26,478.97 262.12,151.16 277.81,-377.8 414.9,-433.26 124.56,-13.76 87.25,44.29 223.25,38.91 191.32,-265.49 7.29,-928.68 -143.39,-1220.42 -30.06,-58.2 -113.68,-192.43 -161.23,-221.81 -59.64,-36.87 -54.04,-31.22 -103.88,2.17z"/>
  <path class="fil17" d="M9185.79 10162.51l14.54 24.05c142.85,-52.79 35.73,29.55 117.64,-104.83 47.86,-78.47 76.75,-21.35 94.57,-123.99 20.25,-116.65 -49.87,-15.08 -2.39,-365.08 27.62,-203.57 -148.93,-280.88 -194.6,-422.88 -95.72,-297.69 -207.74,-88.85 -370.67,-278.15 -104.93,-121.91 -370.45,-118.11 -481.48,-0.99 -59.66,62.94 -31.67,80.88 -49.7,177.97 -21.05,113.2 -42.91,56.33 17.58,152.76 54.7,87.15 31.34,73.58 35.8,190.56 183.04,72.57 110.21,88.64 173.57,220.89l193.95 206.52c87.03,102.07 140.98,74.29 215.25,184.76 64.26,95.6 5.02,50.06 122.36,78.8 73.23,17.94 72.78,13.6 113.58,59.61z"/>
  <path class="fil17" d="M7755.92 10706.48c166,168.29 188.35,23.65 339.32,25.44 69.64,0.83 74.55,42.62 180.68,23.34 89.41,-16.21 53.92,-52.86 161.96,-58.17 384.58,-18.81 180.82,-56.31 356.92,-76.6 93.62,-10.81 116.41,4.08 180.86,-38.61l118.87 -122.41c-22.39,-72.41 -38.75,-92.21 -93.28,-129.09 -197.11,-133.39 -5.13,-77.46 -136.88,-162.23 -58.41,-37.59 -175.44,-41.03 -248.86,-59.49 -114.69,-28.81 -185.68,-84.01 -300.51,-98.67 -81.16,-10.36 -246.78,7.65 -359.68,5.92 -219.88,-3.3 -142.29,82.11 -278.34,120.34 -264.15,74.19 -102.32,9.41 -226.22,179.24 -58.57,80.28 -88.4,168.1 3.23,281.54 61.17,75.75 33.73,14.11 122.44,81.28 22.35,16.92 19.35,83.51 179.49,28.17z"/>
  <path class="fil25" d="M11512.33 10719.11c2.28,4.36 4.17,10.71 5.02,13.92l13.03 245.84c9.58,154.41 49.87,145.09 81.87,152.59 35.61,-55.62 -2.58,-11.11 21.68,-69.21 20.37,-48.76 -16.66,-3.92 40.24,-61.15 89.4,23.13 29.59,8.64 122.44,179.1 2.17,4.01 5.4,8.75 7.45,12.79l12.65 26.69c49.84,137.18 -69.47,339.15 -184.5,398.5 -121.16,-56.24 -134,-214.4 -359.66,79.1 -37.52,-14.91 -2.8,21.79 -49.86,-27.8l-13.29 68.25c-248.33,22.57 -599.07,69.72 -839.57,-18.57l-344.04 -80.85c17.59,45.17 -9.25,58.48 118,90.24 53.41,13.34 98.2,24.26 148.61,33.59 200.1,32.61 563.74,50.62 723.42,158.7 71.29,15.74 46.53,6.75 48.07,104.36 99.68,-32.4 2.1,9.18 45.4,-18.62 9.8,-96.78 113.61,-227.24 181.08,-250.72 108.54,-37.76 252.45,-34.39 333.42,-101.24l91.4 83.68c36.36,28.93 55.86,40.47 88.99,62.87 118.38,56.5 155.66,52.37 282.06,25.94 32.19,-57.54 70.26,-174.59 108.09,-250.54 12.08,-154.13 110.07,-252.61 258.01,-255.06 131.05,-2.17 261.29,110.33 404.21,116.86 125.88,-13.92 185.87,-130.45 149.22,-273.14 -33.65,-131.04 -151.18,-124.08 -236.7,-206.23 0.97,-103.13 89.75,-159.91 51.68,-284.05 -4.65,-2.05 -12.69,-8.73 -14.82,-3.58 -9.27,22.23 5.34,-24.83 -53.17,6.56 -128.21,68.74 -438.52,583.85 -679.83,438.22 -53.66,-32.38 -65.53,-75.83 -131.64,-91.66 -99.04,-23.72 -86.28,40.56 -111.48,100.55l0.71 -285.95c-74.27,-21.83 -288.58,-79.06 -318.19,-119.98z"/>
  <path class="fil26" d="M3171.23 11693.41c37.05,-84.67 64.64,-117.17 92.55,-230.94 28.56,-116.35 19.19,-180.14 104.86,-231.02 101.69,-3.21 127.32,82.37 190.3,165.77 46.47,-21.95 5.24,7.27 43.59,-35.31 1.13,-1.25 28.25,-41.56 28.3,-41.63 -7.81,-72.57 52.65,-36.77 287.72,-43.16 94.66,-2.57 218.23,0.52 300.66,-58.39 -85.62,-46.65 -169.82,-4.88 -263.54,0.19 -101.87,5.48 -205.85,0.64 -307.61,-0.07l-1.8 -131.73c-66.93,-212.37 -162.17,-311.33 -405.84,-346.47 -78.07,-14.11 -19.8,-11.02 -44.93,18.53 4.95,58.74 28.81,67.33 37.52,94.56l-159.25 21.27c-23.93,93.05 -43.82,133.59 -124.11,174.02l28.37 -165.62c-281.92,3.23 -158.66,84.25 -139,139.4 -130.04,-12.63 -38.66,-99.97 -198.21,-39.29 -0.67,1.53 -53.91,33.18 42.33,92.34 9.28,5.69 86.92,43.24 112.24,56.62l31.18 189.81 -81.11 7.95c-6.52,-11.8 -14.07,-27.19 -19,-37.73 -89.99,-192.15 -97.89,-76.77 -151.86,-200.27l-28.44 84.27c-43.45,-2.73 -106.62,1.09 -139.12,-5.75 -76.65,-16.12 3.21,-20.13 -105.89,-41.73 -108.3,45.41 -172.35,151.79 -156.7,310.85 -188.47,5.95 -319.49,-39.26 -471.8,-71.38 65.44,58.59 272.31,84.46 389.79,90.83l76.72 9.46c58.2,120.79 -26.17,179.62 81.32,250.42 81.42,53.62 211.67,65.25 312.37,33.53 271.53,-85.54 65.86,-322.89 316.42,-381.27 -77.5,67.61 -78.92,280.48 321.97,321.94z"/>
  <path class="fil27" d="M13783.26 11041.62c7.2,62.14 -4.01,13.36 -35.85,91.83 -19.23,47.38 -20.93,87.2 -34.95,127.43 2.55,45.1 29.17,248.2 28.41,253.58 -11.4,81.58 -99.04,123.42 -7.12,259.55 183.58,271.86 1166.09,215.06 1050.2,-562 -72.01,-224.67 -164.49,-272.58 -414.34,-296.13 -94.4,91.31 -1.98,37.03 -114.15,82.27 -130.86,52.77 -27.54,3.63 -105.68,94l-134.14 -3.28c59,-49.47 30.56,3.18 61.5,-78.4 -78.44,-4.77 -95.93,-27.4 -166.92,-19.07 -111.48,13.1 -36.18,32.5 -126.96,50.22z"/>
  <path class="fil7" d="M8433.37 2535.23c65.3,-27.71 281.19,-243.62 332.28,-297.33 76.63,-80.57 300.78,-259.58 322.06,-330.26 -138.5,-190.75 -990.37,-223.11 -1271.75,-205.81 -73.63,33.54 -89.11,-21.4 -134.87,85.39 -54.85,127.98 12.08,347.71 105.68,448.69l131.35 170.93c2.91,3.45 6.61,8.05 9.56,11.45l162.01 133.43c79.32,40.05 200.93,84.16 280.84,30.92l48.89 -37.29c3.21,-2.38 9.09,-7.06 13.95,-10.12z"/>
  <path class="fil9" d="M8704.53 5834.01c-2.46,-143.81 -314.84,-1044.68 -379.72,-1246.85 -64.23,-15.93 -161.75,0.56 -139.07,-115.08 -16.78,107.31 51.12,24.38 -228.13,95.04 -322.49,81.61 -182.97,236.58 -86.45,562.45 99.12,334.68 144.08,310.33 241.73,522.54 2.03,4.41 4.37,9.67 6.4,14.09l103.97 232.14c77.15,106.46 367.83,60.06 471.64,50.7 25.13,-73.66 4.77,-31.96 9.63,-115.03z"/>
  <path class="fil17" d="M10249.3 12806.46c-13.19,-56.99 10.41,-152.24 19.12,-218.08 0.5,-3.73 0.85,-10.6 2.43,-15.65 27.07,-6.8 76.86,-11.04 96.64,-17.13 76.25,-23.48 79.04,-51.02 91.33,-66.29l-215.96 -5.76c-97.75,-91.21 7.93,-139.1 -125.9,-249.45 -211.59,-174.49 -35.83,-130.81 -293.86,-287.58 -268.3,-163 -76.65,-155.17 -429.65,-136.52 -177.43,9.36 -105.4,12.95 -186.28,164.93 -14.98,-76.32 38.31,-12.91 -34.31,-133.57 -97.61,-162.2 -8.07,-353.92 27.8,-553.27 -122.2,100.61 -211.54,292.45 -210.25,512.89 0.62,103.34 43.33,202.81 84.32,280.24 24.62,46.54 40.27,61.39 69.74,107.12 92.63,143.75 -24.07,38.8 112.69,147.9 3.16,2.53 7.81,6.09 10.88,8.66l166.02 134.12c355.69,247.39 582.84,242.7 815.24,327.44z"/>
  <path class="fil14" d="M14027.47 10487.24c-45.67,-18.64 -58.86,-26.76 -99.85,-50.24 -22.66,-13 -27.69,-17.11 -47.91,-27.3 -36.89,-18.65 9.41,-1.7 -34.65,-14.4 -78.27,58.67 -50.45,75.07 -146.31,113.66 -317.77,127.93 -532.69,-37.72 -590.84,-32.15 32.12,87.27 3.59,171.59 72.05,292.35l186.88 205.7c3.28,3.04 9.23,7.86 13.53,12.13 -482.9,9.53 -531.06,429.74 216.43,330.46l115.66 -56.57c14.02,-40.23 15.72,-80.05 34.95,-127.43 31.84,-78.47 43.05,-29.69 35.85,-91.83 -54.75,-42.15 -29.74,34.79 -46.66,-47.58l115.05 -35.04c-25.91,-92.04 -35.21,-24.1 -68.06,-129.54 58.78,56.9 113.84,102 233.59,92.75 -7.58,-117.62 -32.29,-49.45 -38.71,-177.52l107.62 -89.35c0.37,-3.37 1.74,-5.47 3.77,-7.31 56.15,35.54 99.45,19.32 239.68,51.11 -14.77,-74 -20.18,-25.44 8.85,-14.79 191.39,70.13 535.61,-34.08 701.63,-132.87 70.97,-42.24 128.01,-84.01 127.32,-198.94 -213.19,136.12 -207.01,148.86 -518.83,198.35 -198.31,31.48 -442.68,10.17 -621.04,-63.65z"/>
  <path class="fil20" d="M7067.76 7875.25l22.61 46.37c0.54,1.68 3.42,6.8 3.66,8.43 9.93,67.21 -182.42,84.27 -217.26,125.34 -14.72,-17.68 49.82,7.92 -47.67,-73.49 95.18,-9.09 158.28,-26.93 201.78,-99.48 -220.89,9.61 -328.11,-95.03 -592.94,0.57 -231.98,83.76 -202.58,179.92 -330.98,358.6 101.9,88.68 130.74,130.03 257.07,-34.03 154.34,-200.46 273.68,-28.73 295.56,-14.85 -66.86,59.71 -11.26,53.1 -87.53,164.58l-44.28 59.85c92.54,-13.78 176.62,-38.37 270.74,-46.82 380.63,-34.17 273.35,-39.2 545.62,-77.08 64.02,-8.89 198.59,-2.64 267.54,25.33 115.03,11.32 166.17,-16.59 255.23,-41.77 -5.07,-78.26 11.31,-66.55 -42.08,-125.86 -112.02,-124.46 -169.82,50.43 -330.98,-49.23 84.89,-250.74 320.11,-40.9 419.72,-34.17 87.74,5.95 24.47,27.47 73.63,-25.65 -60.68,-53.5 -56.95,-65.82 -77.86,-117.43l-120.9 -255.59c-60.53,71.63 -28.2,97.49 -120.87,164.35 0.09,-0.09 36.25,-7.69 8.42,-80.1 -89.77,46.05 -184.76,151.49 -281.07,182.85 46.14,-56.97 41.4,-39.34 77.55,-117.41 -297.02,42.41 -173.5,99.22 -275.15,133.01 -31.83,-38.18 8.45,-68.65 -0.87,-103.55 -53.59,7.08 -100.2,6.37 -128.69,27.23z"/>
  <path class="fil28" d="M4157.8 7937.53c-133.17,23.29 -31.03,-10.36 -106.76,75.78 -41.63,47.36 -50.48,40.14 -92.06,87.93 -45.88,52.72 -265.61,366.45 -252.94,454.01 20.96,144.73 106.69,251.52 -137.4,200.19 -17.89,84.46 -83.54,141.31 -182.66,157.41 36.13,18.29 99.52,57.51 154.84,87.11 64.69,34.59 121.11,60.58 198.47,84.06 217.07,65.86 293.32,26.31 494.25,-1.44 78.79,-42.6 63.36,-184.29 72.12,-281.33 9.34,-103.75 28.53,-194.11 40.63,-295.68 23.15,-194.08 26.77,-455.49 -3.37,-651.75 -48.24,18.39 -52.98,21.38 -101.79,47.79 -14.18,7.67 -32.78,17.87 -38.65,20.56 -15.88,7.26 -11.24,9.29 -44.68,15.36z"/>
  <path class="fil29" d="M15167.34 10352.54c0.69,114.93 -56.35,156.7 -127.32,198.94 -166.02,98.79 -510.24,203 -701.63,132.87 -29.03,-10.65 -23.62,-59.21 -8.85,14.79 -140.23,-31.79 -183.53,-15.57 -239.68,-51.11 -2.03,1.84 -3.4,3.94 -3.77,7.31l-107.62 89.35c6.42,128.07 31.13,59.9 38.71,177.52 -119.75,9.25 -174.81,-35.85 -233.59,-92.75 32.85,105.44 42.15,37.5 68.06,129.54l-115.05 35.04c16.92,82.37 -8.09,5.43 46.66,47.58 90.78,-17.72 15.48,-37.12 126.96,-50.22 70.99,-8.33 88.48,14.3 166.92,19.07 -30.94,81.58 -2.5,28.93 -61.5,78.4l134.14 3.28c78.14,-90.37 -25.18,-41.23 105.68,-94 112.17,-45.24 19.75,9.04 114.15,-82.27 249.85,23.55 342.33,71.46 414.34,296.13l-11.87 -55.89c108.22,-8.35 238.07,-22.18 256.43,-86.13 0.38,-1.3 0.38,-6.78 0.92,-8.12 13.57,-32.55 -7.69,-5.48 29.05,-32.78 91.4,-67.94 67.99,-17.09 196.28,-144.27 38.49,-38.16 49.77,-46.01 88.8,-89.7 83.45,-93.33 85.03,-106.27 126.09,-235.64l33.85 -145.96c-16.88,-48.07 -35.5,-82.27 -65.23,-123.05 -37.95,-52.01 -63.58,-64.19 -91.71,-120.05l-40.55 -0.24c-20.86,38.26 -26.07,60.77 -60.22,105.99l-78.45 76.37z"/>
  <path class="fil17" d="M10913.84 10614.3c13.64,36.13 13.6,58.13 38.12,82.91 64.54,65.23 135.36,-15.29 163.54,104.92 16.43,70 -44.25,210.49 -74.34,261.77 -79.46,-9.02 -108.58,-40.48 -207.48,-10.17 -64.5,19.75 -144.01,21.99 -212.73,49.48l-289.99 236.94c-49.11,-45.24 -61.08,-37.14 -80.97,-106.22l-130.77 -46.11c-25.67,19.89 -58.24,-22.96 -12.39,72.12 35.26,73.11 198.5,107.82 254.31,150.35 49.09,37.38 213.18,234.7 8.69,308.87 240.5,88.29 591.24,41.14 839.57,18.57l13.29 -68.25c-106.72,-133.76 -1.3,-92.98 -12.34,-251.42 -1.87,-26.74 -31.98,-113.83 -32.17,-114.67 -11.19,-46.24 -12.44,-108.47 -22.11,-164.47 86.3,106.88 78.96,192.57 141.83,-26.2 -177.82,-68.48 -171.31,-358.07 -159.67,-517.51 -67.4,-5.66 -174.8,-34.12 -224.39,19.09z"/>
  <path class="fil25" d="M9212.13 11230.98l-11.47 57.11c-35.87,199.35 -125.41,391.07 -27.8,553.27 72.62,120.66 19.33,57.25 34.31,133.57 80.88,-151.98 8.85,-155.57 186.28,-164.93 353,-18.65 161.35,-26.48 429.65,136.52 258.03,156.77 82.27,113.09 293.86,287.58 133.83,110.35 28.15,158.24 125.9,249.45 135.84,24.35 166.54,-11.68 270.43,-8.21l30.68 -99.97c-136.27,-31.51 -147.73,-87.41 -189.01,-219.57 -42.01,-134.47 -38.66,-183.79 -109.29,-313.54 -179.54,-27.64 10.27,44.88 -296.81,24.11 -94.89,-6.41 -125.38,75.1 -200.05,-8.23 51.56,-21.97 112.21,-7.77 178.03,-14.37 -56.97,-180.61 -90.34,-316.19 -128.19,-505.03 -32.29,-74.72 -37.36,-100.16 -104.57,-151.09 -126.99,105.59 -70.56,296.58 -198.54,404.29 -337.69,-134.24 18.97,-310.97 -81.35,-579.65 -39.65,-38.02 -41.13,-31.96 -113.23,-33.21 -20.46,20.63 -9.02,6.47 -27.05,39.15 -35.11,63.72 -38.63,114.25 -47.34,163.36l-14.44 49.39z"/>
  <path class="fil30" d="M5759.81 11976.32c-41.49,-190.84 -309.25,-125.92 -476.14,-139.07 -369.57,8.99 -519.95,-162.22 -583.22,-97.93 -81.25,82.55 -18.86,355.88 144.1,534.29 198.35,217.14 471.42,286.24 698.9,88.71 31.62,-27.47 0.02,-5.64 32.38,-29.19 106.48,-77.55 69.97,3.7 131.54,-105.85 50.17,-89.25 58.34,-132.53 52.44,-250.96z"/>
  <path class="fil1" d="M4948.48 9654.44c58.29,197.69 185.26,364.38 153.94,628.53l861.17 -496.21c97.68,-54.91 178.39,-126.94 302.38,-163.73l-3.21 -63.25 -25.39 -44.84 -54.4 70c-44.34,40.19 -184.33,76.23 -236.3,65.35 6.82,-269.01 5.97,-193.45 100.42,-249.8 -109.86,-96.76 -120.62,-73.35 -243.62,-14.02 -347.46,167.6 -493.3,113.28 -608.42,150.42 -73.42,23.67 -160.74,90.79 -246.57,117.55z"/>
  <path class="fil19" d="M14509.46 7839.17c73.44,43.82 111.7,97.75 199.82,130.62 172.06,-132.18 389.81,-648.28 179.83,-853 -164.42,5.61 -204.73,140.11 -319.71,165.36 -104.85,-74.46 -70.77,-204.47 -193.39,-272.1 -114.96,183.46 -162.63,680.39 -87.37,835.58 54.19,111.7 77.95,-6.75 220.82,-6.46z"/>
  <path class="fil31" d="M12431.55 4369.07c97.09,-57.79 199.11,-366.76 236.14,-467.69l259.35 -661.99c-328.03,-36.79 -611.29,17.53 -685.66,316.75 -39.38,158.49 -11.09,322.16 35.45,462.15 31.67,95.29 147.33,306.06 154.72,350.78z"/>
  <path class="fil30" d="M12968.7 8470.6c-27.12,74.59 -88.1,189.22 -61.03,273.56 78.8,245.65 279.3,291.12 456.44,169.82 87.72,-60.08 97.06,-106.48 163.26,-194.39 52.22,-205.6 41.96,-266.72 -39.65,-455.23 -48.99,-113.21 -120.88,-247.75 -237.06,-286.36 -96,63.32 -210.41,377.34 -281.96,492.6z"/>
  <path class="fil19" d="M7815.96 1701.83c281.38,-17.3 1133.25,15.06 1271.75,205.81 -21.28,70.68 -245.43,249.69 -322.06,330.26 -51.09,53.71 -266.98,269.62 -332.28,297.33l-5.9 101.57c108.04,-69.71 532.64,-505.9 697.2,-659.23 50.76,-47.32 64.81,-55.88 94.78,-116.98 -293.32,-53.01 -575.52,-361.24 -549.56,-727.72 -162.94,68.61 -537.18,311 -729.3,419.77 -95.62,54.11 -156.42,100.32 -234.79,149.22l110.16 -0.03z"/>
  <path class="fil6" d="M9957.57 10747c69.03,130.96 246.19,24.45 316.68,331.77 46.8,204.04 -21.81,153.39 -24.26,155.16 19.89,69.08 31.86,60.98 80.97,106.22l289.99 -236.94c68.72,-27.49 148.23,-29.73 212.73,-49.48 98.9,-30.31 128.02,1.15 207.48,10.17 30.09,-51.28 90.77,-191.77 74.34,-261.77 -28.18,-120.21 -99,-39.69 -163.54,-104.92 -24.52,-24.78 -24.48,-46.78 -38.12,-82.91 -20.72,-33.27 -42.1,-44.27 -86.04,-54.94 36.84,-29.35 34.76,-48.28 20.27,-133.31 -156.96,-98.65 -238.5,17.94 -182.85,139.43 30.73,67.11 61.12,16.49 77.36,142.25 5.59,43.21 6.87,88.15 6.21,131.81 -2.67,172.91 -93.98,287.08 -267.57,216.88 -30.68,-154.89 55.27,-162.11 32.16,-257.38l-118.3 21.66c-72.4,-139.94 15.22,-201.25 -101.57,-250.17 -23.04,29.14 -11.54,3.75 -23.96,51.8 -21.54,83.4 7.96,61.87 -23.62,140.34 -81.73,-30.02 -109.78,-102.32 -137.94,-180.49 -41.51,-115.21 -31.32,-167.58 -186.84,-158.3 -25.77,110.73 -30.42,246.9 36.42,323.12z"/>
  <path class="fil6" d="M11297.9 11112.72c-62.87,218.77 -55.53,133.08 -141.83,26.2 9.67,56 10.92,118.23 22.11,164.47 0.19,0.84 30.3,87.93 32.17,114.67 11.04,158.44 -94.38,117.66 12.34,251.42 47.06,49.59 12.34,12.89 49.86,27.8 225.66,-293.5 238.5,-135.34 359.66,-79.1 115.03,-59.35 234.34,-261.32 184.5,-398.5l-12.65 -26.69c-2.05,-4.04 -5.28,-8.78 -7.45,-12.79 -92.85,-170.46 -33.04,-155.97 -122.44,-179.1 -56.9,57.23 -19.87,12.39 -40.24,61.15 -24.26,58.1 13.93,13.59 -21.68,69.21 -32,-7.5 -72.29,1.82 -81.87,-152.59l-13.03 -245.84c-0.85,-3.21 -2.74,-9.56 -5.02,-13.92 -10.36,-104.52 -76.14,-45.29 29.66,-79.72 -35.49,9.01 -93.57,-39.44 -133.12,-74.43 -74.77,-66.13 -34.7,-62.68 -161.35,-59.66 -26.13,215.7 127.6,177.13 50.38,607.42z"/>
  <path class="fil9" d="M3597.01 6048.27c128.59,22.11 261.39,26.01 379.93,-7.24 140.41,-39.39 174.4,-70.35 261.65,-171.74 56.02,-329.87 -394.02,-407.14 -666.5,-331.83 -378.44,104.62 -370.94,415.96 24.92,510.81z"/>
  <path class="fil22" d="M14080.92 9363.79l-26.15 20.06c-97.16,63.67 -462.81,198.16 -235.31,465.97 180.09,212 263.28,247.8 25.6,545.48 44.06,12.7 -2.24,-4.25 34.65,14.4 20.22,10.19 25.25,14.3 47.91,27.3 40.99,23.48 54.18,31.6 99.85,50.24 49.11,-153.23 152.61,-4.06 203.64,-129.23 20.79,-51.02 -3.19,-266.08 0.87,-338.93 11.18,-201.21 45.69,-374.83 134.11,-535 -38.72,-22.52 -42.83,-7.18 -51.37,-86.28 -9.63,-89.04 34.24,-23.63 5,-72.67l-238.8 38.66z"/>
  <path class="fil32" d="M10425.99 4654.39c61.98,78.85 644.93,305.5 706.71,319.14 142.36,-97.3 109.39,-135.65 101.15,-328.49 -6.18,-145.04 -5.4,-282.91 -22.37,-418.58l-31.34 58.22c-96.55,195.05 -308,-179.28 -649.74,137.92 -110.92,102.96 -53.57,134.73 -104.41,231.79z"/>
  <path class="fil31" d="M5307.76 3866.47l45.64 -32.94c-47.98,-63.53 -69.52,-126.99 -105.11,-217.45 -55.18,-140.32 -82.41,-82.45 -131.4,-189.55l-514.92 -503.56c-45.83,277.76 -108.65,496.93 56.1,723.06 59.61,81.84 127.86,144.29 253.43,189.27 157.39,56.35 246.17,18.93 396.26,31.17z"/>
  <path class="fil27" d="M13911.07 10164.47c2.72,-186.34 -21.26,-155.26 -122.1,-243.19 -70.47,-61.48 -78.89,-136.36 -181.36,-179.9 -117.32,-49.89 -600.42,-13.62 -603.42,177.14 -4.27,272.22 472.11,477.56 785.53,322.2 75.31,-37.31 43.14,-40.8 121.35,-76.25z"/>
  <path class="fil6" d="M11333.39 2398.44c-49.13,-41.48 -45.61,88.93 -33.86,-89.09 1.23,-18.54 29.95,-74.48 37.38,-90.97 -10.78,-23.13 1.42,-47.84 7.15,-126.52l-148.82 18.39c3.92,3.37 36.09,50.81 3.5,-11.1l-61.58 -91.68c-31.29,-54.51 20.87,17.2 -24.44,-45.12 -92.56,-0.66 -145.14,3.14 -219.79,-25.58l-25.48 69.1c-0.12,0.61 -0.17,55.12 -0.17,55.38 -149.71,0.52 -207.98,8.95 -222.99,105.35 -12.37,79.32 10.48,-30.75 -3.38,38.92 -3.89,19.61 -26.5,66 -39.5,87.46 -14.8,24.35 -40.69,59.61 -61.76,80.99 -49.32,50.03 -27.42,-6.3 -67.85,77.83 55.96,30 177.89,33.87 261.48,57.91 96.24,27.71 126.99,61.69 230.76,67.95l28.79 110.56c175.46,-15.93 -25.11,-86.11 200.9,-116.13 199.42,-26.5 31.56,-80.85 139.66,-173.65z"/>
  <path class="fil23" d="M11804.18 11801.17c-63.67,25.75 -106.81,62.07 -163.4,87.58 74.88,3.07 20.1,8 102.4,14.98 12.03,169.82 82.71,268.9 86.63,360.27 11.09,43.26 -32.38,1.16 20.98,39.34l26.62 -38.28c63.46,-92.93 61.5,-128.54 154.43,-130.71 94.97,111.69 37.62,173.81 0.76,286.99 -59.49,182.61 81.56,59.87 80.43,238.17l36.08 -21.5c-27.02,-71.44 -38.4,-109.08 -48.28,-190.57l263.25 -15.29c-0.8,-48.76 -8.8,-92.23 -4.51,-131.19 5.64,-51.21 31.95,-27.64 11.94,-53.19l-25.72 -90.11c-2.81,-20.24 -4.39,-73.08 -5.52,-96.19 -3.21,-65.04 -13.43,-105.96 11.25,-164.51 87.56,-111.96 332.43,-160.67 501.21,-93.9 18.76,-26.39 25.13,53.31 19.02,-67.85 -104.64,-53.41 -246.24,-54.92 -371.81,-13.12 -195.71,65.11 -175.51,164.75 -187.73,-87.08 -65.82,-34.04 -79.58,-5.57 -117.88,-58.44 -37.83,75.95 -75.9,193 -108.09,250.54 -126.4,26.43 -163.68,30.56 -282.06,-25.94z"/>
  <path class="fil26" d="M12776.1 12771.11c25.28,153.84 457.97,131 519.78,-8.38 67.5,-152.14 238.4,-341.2 73.49,-562.28 -84.27,-112.97 -238.87,-149.46 -418.47,-99.35 -3.94,118.06 -34.05,245.24 -65.06,348.68 -31.93,106.62 -96.97,235.4 -109.74,321.33z"/>
  <path class="fil31" d="M5878.21 1654.04c19.3,31.86 8.59,17.66 27.8,42.84l519 501.27 293.46 338.96c105.44,-256.76 58.41,-584.98 -100.18,-750.58 -205.77,-214.85 -406.83,-186.13 -740.08,-132.49z"/>
  <path class="fil33" d="M9414.19 11012.29c100.32,268.68 -256.34,445.41 81.35,579.65 127.98,-107.71 71.55,-298.7 198.54,-404.29 67.21,50.93 72.28,76.37 104.57,151.09 -32.05,-110.68 145.84,-173.53 224.43,-122.65 -108.7,-190.66 -235.43,-157.31 -311.18,-193.37 275.36,-38.24 328.76,165.12 407.32,165.1l130.77 46.11c2.45,-1.77 71.06,48.88 24.26,-155.16 -70.49,-307.32 -247.65,-200.81 -316.68,-331.77 -105.42,30.21 -204.02,71.25 -297.64,115.97 -48.92,23.36 -81.79,42.53 -131.9,69.41 -65.23,35 -72.68,31.36 -113.84,79.91z"/>
  <path class="fil17" d="M11337.48 12857.46c226.43,-205.01 123.3,-352.48 199.81,-468.52 127.58,-3.66 77.03,61.99 174.85,133.08 56.71,-42.34 108.25,-126.59 137.26,-217.8 -114.34,-70.52 -124.21,-156.11 -468.17,-157.29 -59.47,109.88 -61.5,74.45 -140.25,95.24 -109.01,28.82 -61.1,57.3 -132.23,131.43 -112.99,117.83 -111.51,51.59 -83.68,428.64 150,84.18 89.13,88.8 312.41,55.22z"/>
  <path class="fil20" d="M11632.21 1393.76c-56.71,-20.39 -73.56,-80.75 -91.12,-136.14 -186.95,1.82 -158.54,-75.78 -306.65,-61.9l-6.16 119.27c-133.81,11.68 -268.11,2.69 -311.09,113.11 29.34,29.22 151.39,99.97 197.27,118.64 118.75,48.26 192.69,-26.17 276.07,21.21 -48.21,106.34 -194.51,88.12 -129.23,249.73 152.66,61.98 314.77,-101.29 372.66,-148.91 88.64,-72.92 342.36,-47.06 445.63,-113.44 -19.94,-15.25 -1.44,-31.65 -85.81,-8.55 -51,13.98 -186.72,92.56 -253.53,-38.77 31.06,-73.68 88.99,-61.45 153.16,-119.89 -8.14,-85.12 -14.09,-214.89 -101.34,-246.52l-144.24 171.62c-14.04,31.1 -2.88,40.85 -15.62,80.54z"/>
  <path class="fil1" d="M7611.68 8318.57c-44.86,-6.23 -40.09,-14.14 -96.73,7.01l-38.66 22.56c149.67,21.14 121.19,34.41 143.96,172.49l92.44 51.7c3.23,1.98 9.51,5.62 13.9,8.92l-49.44 39.18c-68.6,44.55 -123.52,80.64 -205.67,91.78 -300.33,40.68 24,107.4 -235.78,133.88 379.95,133.45 690.54,-268.05 981.9,-347.53 -89.65,-114.65 -101.41,-192.43 -143.27,-276.09 -36.65,-73.18 -34.62,-28.89 -66.25,-114.1l-20.88 -66.48c-49.16,53.12 14.11,31.6 -73.63,25.65 -99.61,-6.73 -334.83,-216.57 -419.72,34.17 161.16,99.66 218.96,-75.23 330.98,49.23 53.39,59.31 37.01,47.6 42.08,125.86 -89.06,25.18 -140.2,53.09 -255.23,41.77z"/>
  <path class="fil16" d="M3597.01 6048.27l41.91 463.78c58.55,42.38 249.07,10.45 325.6,-10.9 110.24,-30.78 167.61,-110.62 229.82,-167.32l25.06 209.28c96.38,-52.84 155.4,-108.35 158.16,-220.9 1.51,-62.35 -32.05,-198.63 -152.07,-200.14 -24.9,-46.49 1.15,-26.69 21.71,-50.84 -29.88,-50.5 -9.84,-118.4 -8.61,-201.94 -87.25,101.39 -121.24,132.35 -261.65,171.74 -118.54,33.25 -251.34,29.35 -379.93,7.24z"/>
  <path class="fil30" d="M3171.23 11693.41c-28.11,38.24 -57.59,73.19 -76.7,130.91 -15.53,46.82 -31.77,125.81 7.98,172.96 159.36,189.13 499.9,4.25 529.45,-205.08 20.7,-146.53 -30.73,-285.58 -73.02,-394.98 -62.98,-83.4 -88.61,-168.98 -190.3,-165.77 -85.67,50.88 -76.3,114.67 -104.86,231.02 -27.91,113.77 -55.5,146.27 -92.55,230.94z"/>
  <path class="fil24" d="M9798.65 11338.74c37.85,188.84 71.22,324.42 128.19,505.03 -65.82,6.6 -126.47,-7.6 -178.03,14.37 74.67,83.33 105.16,1.82 200.05,8.23 307.08,20.77 117.27,-51.75 296.81,-24.11 28.72,-70.4 1.37,-6.38 24.21,-44.56 14.71,-24.54 1.09,9.16 22.52,-35.56 -50.41,-9.33 -95.2,-20.25 -148.61,-33.59 -127.25,-31.76 -100.41,-45.07 -118,-90.24l344.04 80.85c204.49,-74.17 40.4,-271.49 -8.69,-308.87 -55.81,-42.53 -219.05,-77.24 -254.31,-150.35 -45.85,-95.08 -13.28,-52.23 12.39,-72.12 -78.56,0.02 -131.96,-203.34 -407.32,-165.1 75.75,36.06 202.48,2.71 311.18,193.37 -78.59,-50.88 -256.48,11.97 -224.43,122.65z"/>
  <path class="fil17" d="M10245.67 11842.26c70.63,129.75 67.28,179.07 109.29,313.54 41.28,132.16 52.74,188.06 189.01,219.57 110.87,-165.65 318.24,-194.11 374.59,-229.62 20.02,-12.61 97.26,-80.24 119.23,-98.04 1.6,-76.18 14.61,-73.89 -21.97,-126.87 -159.68,-108.08 -523.32,-126.09 -723.42,-158.7 -21.43,44.72 -7.81,11.02 -22.52,35.56 -22.84,38.18 4.51,-25.84 -24.21,44.56z"/>
  <path class="fil31" d="M14012.83 5030.42l-181.78 342.06c309.17,-25.16 458.87,-3.36 581.46,-245.04 115.03,-226.77 21.1,-445.04 -38.06,-665.98 -49.73,30.31 -19.68,-2.87 -64.48,65.09l-297.14 503.87z"/>
  <path class="fil6" d="M11109.29 12006.58l251.53 -34.08c-11.26,13.29 -7.13,13.15 -41.99,27l-132.77 50.81c-69.52,34.93 -118.8,63.72 -165.1,96.43 23.44,53.24 16.78,35.11 52.13,71.2 29.03,29.59 31.91,21.85 61.86,56.75 81.79,-88.54 56.4,-28.13 164.13,-68.98 68.63,-26 73.02,-87.79 166.8,-77.03l201.92 35.83c85.62,16.4 85.59,58.57 162.01,99.49 -3.92,-91.37 -74.6,-190.45 -86.63,-360.27 -82.3,-6.98 -27.52,-11.91 -102.4,-14.98 56.59,-25.51 99.73,-61.83 163.4,-87.58 -33.13,-22.4 -52.63,-33.94 -88.99,-62.87l-91.4 -83.68c-80.97,66.85 -224.88,63.48 -333.42,101.24 -67.47,23.48 -171.28,153.94 -181.08,250.72z"/>
  <path class="fil27" d="M12149.11 12638.01c79.84,-20.91 200.86,-89.73 269.93,-132.77 119.32,-74.41 108.39,-79.16 176.27,-205.04 56.09,-104.07 234.76,-403 257.42,-497.14 -168.78,-66.77 -413.65,-18.06 -501.21,93.9 -24.68,58.55 -14.46,99.47 -11.25,164.51 1.13,23.11 2.71,75.95 5.52,96.19l25.72 90.11c20.01,25.55 -6.3,1.98 -11.94,53.19 -4.29,38.96 3.71,82.43 4.51,131.19l-263.25 15.29c9.88,81.49 21.26,119.13 48.28,190.57z"/>
  <path class="fil34" d="M11850.79 12303.34l-1.39 0.88c-29.01,91.21 -80.55,175.46 -137.26,217.8 -97.82,-71.09 -47.27,-136.74 -174.85,-133.08 -76.51,116.04 26.62,263.51 -199.81,468.52 212.75,-14.23 617.45,-108.82 775.55,-197.95 1.13,-178.3 -139.92,-55.56 -80.43,-238.17 36.86,-113.18 94.21,-175.3 -0.76,-286.99 -92.93,2.17 -90.97,37.78 -154.43,130.71l-26.62 38.28z"/>
  <path class="fil5" d="M1984.55 10242.87c164.35,131.97 315.05,169.59 363.69,310.76 29.45,85.52 43.28,270.87 217.71,405.49 48,37.05 -46.94,-14.31 49.86,32.21 4.7,-4.72 36.06,-6.8 82.04,-54.78 -96.5,-56.92 -192.77,-244.58 -230.01,-407.13 -43.7,-190.71 -18.54,-374.08 18.98,-562.26 -44.75,-29.95 15.53,-12.11 -32.76,-6.49 -34.24,3.96 -8.21,-0.43 -36.03,12.86l-433.48 269.34z"/>
  <path class="fil27" d="M10242.86 12483.55l215.96 5.76c-12.29,15.27 -15.08,42.81 -91.33,66.29 -19.78,6.09 -69.57,10.33 -96.64,17.13 -1.58,5.05 -1.93,11.92 -2.43,15.65 -8.71,65.84 -32.31,161.09 -19.12,218.08 123.48,32.88 391.87,88.19 505.48,58.08 26.86,-45.43 32.48,54 12.09,-74.93 -19.76,-124.68 -223.04,-182.49 -222.9,-414.24l-30.68 99.97c-103.89,-3.47 -134.59,32.56 -270.43,8.21z"/>
  <path class="fil5" d="M13087.95 9089.99c-340.4,69.88 -162.65,360.34 188.37,294.02 328.55,-62.09 162.83,-366.12 -188.37,-294.02z"/>
  <path class="fil35" d="M14319.72 9325.13c29.24,49.04 -14.63,-16.37 -5,72.67 8.54,79.1 12.65,63.76 51.37,86.28 130.08,0.54 197.44,32.14 267.13,-83.59l-36.63 -89.92c75.26,-39.2 -55.13,-242.6 -272.88,-69.95l-3.99 84.51z"/>
 </g>
</svg>
