<svg width="30" height="34" viewBox="0 0 30 34" fill="none" xmlns="http://www.w3.org/2000/svg">
<path d="M20 15.5833C22.075 15.5833 23.7375 13.685 23.7375 11.3333C23.7375 8.98165 22.075 7.08331 20 7.08331C17.925 7.08331 16.25 8.98165 16.25 11.3333C16.25 13.685 17.925 15.5833 20 15.5833ZM10 15.5833C12.075 15.5833 13.7375 13.685 13.7375 11.3333C13.7375 8.98165 12.075 7.08331 10 7.08331C7.925 7.08331 6.25 8.98165 6.25 11.3333C6.25 13.685 7.925 15.5833 10 15.5833ZM10 18.4166C7.0875 18.4166 1.25 20.0741 1.25 23.375V26.9166H18.75V23.375C18.75 20.0741 12.9125 18.4166 10 18.4166ZM20 18.4166C19.6375 18.4166 19.225 18.445 18.7875 18.4875C20.2375 19.6775 21.25 21.2783 21.25 23.375V26.9166H28.75V23.375C28.75 20.0741 22.9125 18.4166 20 18.4166Z" fill="white"/>
</svg>
