<svg width="28" height="28" viewBox="0 0 28 28" fill="#000" xmlns="http://www.w3.org/2000/svg">
<path fill-rule="evenodd" clip-rule="evenodd" d="M10.2 3.4C6.44446 3.4 3.4 6.44446 3.4 10.2C3.4 13.9555 6.44446 17 10.2 17C13.9555 17 17 13.9555 17 10.2C17 6.44446 13.9555 3.4 10.2 3.4ZM0 10.2C0 4.5667 4.5667 0 10.2 0C15.8333 0 20.4 4.5667 20.4 10.2C20.4 12.4029 19.7017 14.4427 18.5143 16.1101L26.7021 24.2979C27.366 24.9618 27.366 26.0382 26.7021 26.7021C26.0382 27.366 24.9618 27.366 24.2979 26.7021L16.1101 18.5143C14.4427 19.7017 12.4029 20.4 10.2 20.4C4.5667 20.4 0 15.8333 0 10.2Z" fill="white"/>
</svg>
