<svg width="39" height="39" viewBox="0 0 39 39" fill="none" xmlns="http://www.w3.org/2000/svg">
<circle cx="19.5" cy="19.5" r="19.5" fill="#E27F0D"/>
<path d="M19.5 12.6375C20.805 12.6375 21.8625 13.695 21.8625 15C21.8625 16.305 20.805 17.3625 19.5 17.3625C18.195 17.3625 17.1375 16.305 17.1375 15C17.1375 13.695 18.195 12.6375 19.5 12.6375ZM19.5 22.7625C22.8412 22.7625 26.3625 24.405 26.3625 25.125V26.3625H12.6375V25.125C12.6375 24.405 16.1587 22.7625 19.5 22.7625ZM19.5 10.5C17.0137 10.5 15 12.5137 15 15C15 17.4862 17.0137 19.5 19.5 19.5C21.9862 19.5 24 17.4862 24 15C24 12.5137 21.9862 10.5 19.5 10.5ZM19.5 20.625C16.4962 20.625 10.5 22.1325 10.5 25.125V28.5H28.5V25.125C28.5 22.1325 22.5037 20.625 19.5 20.625Z" fill="white"/>
</svg>
